<svg xmlns="http://www.w3.org/2000/svg" xmlns:xlink="http://www.w3.org/1999/xlink" viewBox="0 0 190.99 85.59"><defs><style>.cls-1{fill:none;}.cls-2{isolation:isolate;}.cls-3{fill:#957a0c;}.cls-4{fill:#c29e10;}.cls-5{clip-path:url(#clip-path);}.cls-6{fill:#a8890e;}.cls-7{fill:#ad8d0e;}.cls-8{fill:#b3920f;}.cls-9{fill:#b8960f;}.cls-10{fill:#bd9a10;}.cls-11{fill:#c7a210;}.cls-12{fill:#cca611;}.cls-13{fill:#d1ab11;}.cls-14{fill:#d6af12;}.cls-15{fill:#dbb312;}.cls-16{fill:#e0b712;}.cls-17{fill:#e6bb13;}.cls-18{fill:#a3850d;}.cls-19{fill:#9e810d;}.cls-20{fill:#997d0d;}.cls-21{fill:#94790c;}.cls-22{clip-path:url(#clip-path-2);}.cls-23{fill:#8f740c;}.cls-24{fill:#8a700b;}.cls-25{fill:#856c0b;}.cls-26{fill:#80680b;}.cls-27{clip-path:url(#clip-path-3);}.cls-28{clip-path:url(#clip-path-4);}.cls-29{clip-path:url(#clip-path-5);}.cls-30{clip-path:url(#clip-path-6);}.cls-31{clip-path:url(#clip-path-7);}.cls-32{fill:#f7ca14;}.cls-33{clip-path:url(#clip-path-8);}.cls-34{clip-path:url(#clip-path-9);}.cls-35{clip-path:url(#clip-path-10);}.cls-36{clip-path:url(#clip-path-11);}.cls-37{fill:#967a0c;}.cls-38{clip-path:url(#clip-path-12);}.cls-39{clip-path:url(#clip-path-13);}.cls-40{fill:#826a0b;}.cls-41{clip-path:url(#clip-path-14);}.cls-42{clip-path:url(#clip-path-15);}.cls-43{clip-path:url(#clip-path-16);}.cls-44{clip-path:url(#clip-path-17);}.cls-45{clip-path:url(#clip-path-18);}.cls-46{clip-path:url(#clip-path-19);}.cls-47{fill:#95790c;}.cls-48{clip-path:url(#clip-path-20);}.cls-49{clip-path:url(#clip-path-21);}.cls-50{clip-path:url(#clip-path-22);}.cls-51{clip-path:url(#clip-path-23);}.cls-52{clip-path:url(#clip-path-24);}.cls-53{clip-path:url(#clip-path-25);}.cls-54{clip-path:url(#clip-path-26);}.cls-55{clip-path:url(#clip-path-27);}.cls-56{clip-path:url(#clip-path-28);}.cls-57{clip-path:url(#clip-path-29);}.cls-58{clip-path:url(#clip-path-30);}.cls-59{clip-path:url(#clip-path-31);}.cls-60{clip-path:url(#clip-path-32);}.cls-61{clip-path:url(#clip-path-33);}.cls-62{clip-path:url(#clip-path-34);}.cls-63{clip-path:url(#clip-path-35);}.cls-64{clip-path:url(#clip-path-36);}.cls-65{clip-path:url(#clip-path-37);}.cls-66{clip-path:url(#clip-path-38);}.cls-67{fill:#846c0b;}.cls-68{clip-path:url(#clip-path-39);}.cls-69{clip-path:url(#clip-path-40);}</style><clipPath id="clip-path"><path class="cls-1" d="M172.52,54.37,169.65,51a6.4,6.4,0,0,0,5.29,2.35c3.53-.13,7.15-3.7,11.26-12.25l2.87,3.37C185,53,181.33,56.6,177.8,56.73A6.36,6.36,0,0,1,172.52,54.37Z"/></clipPath><clipPath id="clip-path-2"><path class="cls-1" d="M148.45,78l-2.86-3.38a2.15,2.15,0,0,0,1.77.77c1.62-.06,3.4-.9,3.29-8.55l2.87,3.38c.11,7.65-1.68,8.49-3.29,8.55A2.19,2.19,0,0,1,148.45,78Z"/></clipPath><clipPath id="clip-path-3"><path class="cls-1" d="M146.72,79.49l-2.86-3.38a5,5,0,0,1-1.11-3.2c-.06-4.36,3.4-9,7.78-14.58l2.87,3.38c-4.38,5.57-7.85,10.22-7.78,14.58A4.93,4.93,0,0,0,146.72,79.49Z"/></clipPath><clipPath id="clip-path-4"><path class="cls-1" d="M168,57.8l-2.86-3.38a13.58,13.58,0,0,1-2.92-7.35c-.06-.54-.09-1.09-.1-1.65,0-.71,0-1.41.06-2.09.63-9.58,6.58-16.12,12.88-16.35a5.27,5.27,0,0,1,4.4,1.61L182.36,32A5.3,5.3,0,0,0,178,30.36c-6.3.23-12.24,6.77-12.88,16.35,0,.68-.06,1.38,0,2.09s0,1.11.1,1.65A13.5,13.5,0,0,0,168,57.8Z"/></clipPath><clipPath id="clip-path-5"><path class="cls-1" d="M155.53,53.47a86.6,86.6,0,0,0,6.68-10.14l2.86,3.38a85.35,85.35,0,0,1-6.68,10.14Z"/></clipPath><clipPath id="clip-path-6"><path class="cls-1" d="M175.06,30.46l2.87,3.38a3.4,3.4,0,0,1,.74,2.2c.06,4.08-5.35,8.49-8.77,10.45L167,43.11c3.43-2,8.84-6.37,8.78-10.45A3.35,3.35,0,0,0,175.06,30.46Z"/></clipPath><clipPath id="clip-path-7"><path class="cls-1" d="M142.5,56.71l-2.86-3.38a4.25,4.25,0,0,0,3.53,1.61c3.07-.12,6.24-4.23,7.21-7.4l2.86,3.38c-1,3.17-4.13,7.28-7.21,7.4A4.26,4.26,0,0,1,142.5,56.71Z"/></clipPath><clipPath id="clip-path-8"><path class="cls-1" d="M148.47,32l2.87,3.38a7.85,7.85,0,0,1,1.75,5L150.22,37A7.8,7.8,0,0,0,148.47,32Z"/></clipPath><clipPath id="clip-path-9"><path class="cls-1" d="M155.33,28l2.86,3.38c-.16-.19-.48-.27-1-.25-1.54.06-4.19,1.31-4.16,3.21L150.14,31c0-1.9,2.62-3.15,4.15-3.21C154.84,27.73,155.16,27.81,155.33,28Z"/></clipPath><clipPath id="clip-path-10"><path class="cls-1" d="M137.8,59.41,134.93,56c-1.66-2-2.85-5-3.18-9.08-.05-.59-.08-1.21-.08-1.85a21.9,21.9,0,0,1,.09-2.56c.62-7.2,4.28-14.11,11-14.36a9,9,0,0,1,7.26,3l2.86,3.38a9,9,0,0,0-7.25-3c-6.67.25-10.34,7.16-11,14.36-.07.85-.1,1.71-.09,2.56,0,.64,0,1.26.09,1.85C134.94,54.45,136.14,57.45,137.8,59.41Z"/></clipPath><clipPath id="clip-path-11"><path class="cls-1" d="M125.72,58.23l-2.86-3.38a1,1,0,0,0,.82.4c1.46,0,3.41-2.85,7.09-10.57l2.86,3.38C130,55.78,128,58.58,126.54,58.63A1,1,0,0,1,125.72,58.23Z"/></clipPath><clipPath id="clip-path-12"><path class="cls-1" d="M119.42,58.28c-1.26-1.48-1.84-4.14-2.1-7.13l2.87,3.38c.26,3,.84,5.65,2.1,7.13Z"/></clipPath><clipPath id="clip-path-13"><path class="cls-1" d="M108.92,57.28l-2.87-3.38a4.92,4.92,0,0,0,4.06,1.85L113,59.13A4.9,4.9,0,0,1,108.92,57.28Z"/></clipPath><clipPath id="clip-path-14"><path class="cls-1" d="M115.2,33.79l2.87,3.38A11.06,11.06,0,0,1,120.52,44c.13,9.26-4.17,15.06-7.54,15.18l-2.87-3.38c3.37-.12,7.68-5.92,7.54-15.18A11.06,11.06,0,0,0,115.2,33.79Z"/></clipPath><clipPath id="clip-path-15"><path class="cls-1" d="M88.56,56a1.54,1.54,0,0,0,1.2.5l2.87,3.38a1.55,1.55,0,0,1-1.21-.5Z"/></clipPath><clipPath id="clip-path-16"><path class="cls-1" d="M123.48,29.07l2.87,3.38c-.12-.13-.31-.16-.63-.15-.79,0-4.31.75-4.5,2.66l-2.87-3.38c.2-1.91,3.72-2.63,4.5-2.66C123.18,28.91,123.37,28.94,123.48,29.07Z"/></clipPath><clipPath id="clip-path-17"><path class="cls-1" d="M104.07,60.31l-2.87-3.38a13.57,13.57,0,0,1-2.88-7.53c-.06-.63-.1-1.29-.11-2s0-1.42.05-2.11c.6-9.23,6-15.7,12.14-15.93a7.46,7.46,0,0,1,5.83,3l2.87,3.38a7.47,7.47,0,0,0-5.83-3c-6.14.23-11.54,6.7-12.14,15.93,0,.69-.06,1.39,0,2.11s0,1.35.11,2A13.57,13.57,0,0,0,104.07,60.31Z"/></clipPath><clipPath id="clip-path-18"><path class="cls-1" d="M90.06,56.5c1.27,0,3.54-1.71,8.2-11.19l2.87,3.38c-4.67,9.48-6.93,11.14-8.21,11.19h-.29L89.76,56.5Z"/></clipPath><clipPath id="clip-path-19"><path class="cls-1" d="M70.34,60.29l-2.87-3.38a1,1,0,0,0,.82.39c1.46,0,3.41-2.85,7.09-10.57l2.86,3.38c-3.67,7.72-5.62,10.52-7.08,10.57A1,1,0,0,1,70.34,60.29Z"/></clipPath><clipPath id="clip-path-20"><path class="cls-1" d="M82.75,54.11C82.64,46.46,89.4,36.65,90.5,32l2.86,3.38c-1.1,4.63-7.85,14.44-7.74,22.09a8,8,0,0,0,1.53,5.2l-2.87-3.38A8.11,8.11,0,0,1,82.75,54.11Z"/></clipPath><clipPath id="clip-path-21"><path class="cls-1" d="M66.9,63.71,64,60.33c-1.25-1.48-1.83-4.13-2.1-7.12l2.87,3.38C65.06,59.58,65.64,62.23,66.9,63.71Z"/></clipPath><clipPath id="clip-path-22"><path class="cls-1" d="M79.32,47.75l-2.86-3.38A30.49,30.49,0,0,0,79,36.52l2.86,3.38A30.21,30.21,0,0,1,79.32,47.75Z"/></clipPath><clipPath id="clip-path-23"><path class="cls-1" d="M90.47,30.12a1.92,1.92,0,0,1,1.62.51L95,34a2,2,0,0,0-1.63-.51c-2.7.1-6.49,2.14-9.34,2.24l-2.87-3.38C84,32.26,87.77,30.22,90.47,30.12Z"/></clipPath><clipPath id="clip-path-24"><path class="cls-1" d="M27.3,82.91l-2.86-3.38a2.08,2.08,0,0,0,1.7.77L29,83.68A2.09,2.09,0,0,1,27.3,82.91Z"/></clipPath><clipPath id="clip-path-25"><path class="cls-1" d="M53.53,59.33,50.67,56a4.94,4.94,0,0,0,4,1.86l2.87,3.38A5,5,0,0,1,53.53,59.33Z"/></clipPath><clipPath id="clip-path-26"><path class="cls-1" d="M80.12,35.15l-2.86-3.38a2.47,2.47,0,0,0,1.8.75l2.87,3.38A2.49,2.49,0,0,1,80.12,35.15Z"/></clipPath><clipPath id="clip-path-27"><path class="cls-1" d="M78.49,30.51l2.87,3.38a3.34,3.34,0,0,1,.57,2l-2.87-3.38A3.21,3.21,0,0,0,78.49,30.51Z"/></clipPath><clipPath id="clip-path-28"><path class="cls-1" d="M77.91,38.06l-2.86-3.38A4.48,4.48,0,0,1,74,31.77a3.57,3.57,0,0,1,3.47-3.71,3.15,3.15,0,0,1,2.61,1.11l2.86,3.38a3.13,3.13,0,0,0-2.6-1.11,3.58,3.58,0,0,0-3.48,3.71A4.59,4.59,0,0,0,77.91,38.06Z"/></clipPath><clipPath id="clip-path-29"><path class="cls-1" d="M29,83.68,26.14,80.3c3.08-.11,5.18-5.16,5-19.3L34,64.38C34.19,78.52,32.08,83.57,29,83.68Z"/></clipPath><clipPath id="clip-path-30"><path class="cls-1" d="M59.82,35.85l2.87,3.38A11,11,0,0,1,65.14,46c.13,9.25-4.18,15.05-7.55,15.18l-2.87-3.38c3.37-.13,7.69-5.93,7.55-15.18A11,11,0,0,0,59.82,35.85Z"/></clipPath><clipPath id="clip-path-31"><path class="cls-1" d="M68.09,31.12,71,34.5c-.11-.13-.31-.16-.63-.15-.79,0-4.31.76-4.5,2.66L63,33.63c.2-1.9,3.72-2.63,4.5-2.66C67.79,31,68,31,68.09,31.12Z"/></clipPath><clipPath id="clip-path-32"><path class="cls-1" d="M24.45,83.58,21.59,80.2A7.25,7.25,0,0,1,20,75.57c-.11-7.28,5.11-12.22,11.19-17.33L34,61.62C27.94,66.73,22.72,71.67,22.82,79A7.36,7.36,0,0,0,24.45,83.58Z"/></clipPath><clipPath id="clip-path-33"><path class="cls-1" d="M48.68,62.37,45.81,59a14,14,0,0,1-2.93-8.22c0-.42-.05-.85-.06-1.3,0-.75,0-1.49.06-2.21.63-9.17,6-15.6,12.13-15.83a7.51,7.51,0,0,1,5.84,3l2.87,3.38a7.52,7.52,0,0,0-5.84-3c-6.12.23-11.5,6.66-12.13,15.83,0,.72-.07,1.46-.06,2.21,0,.45,0,.88.05,1.3A14,14,0,0,0,48.68,62.37Z"/></clipPath><clipPath id="clip-path-34"><path class="cls-1" d="M36.47,54.67a23.86,23.86,0,0,0,6.41-7.41l2.87,3.38a23.92,23.92,0,0,1-6.42,7.41Z"/></clipPath><clipPath id="clip-path-35"><path class="cls-1" d="M34,61.62l-2.87-3.38c.07-5.5.3-11,.48-13.54l2.87,3.37C34.31,50.59,34.09,56.12,34,61.62Z"/></clipPath><clipPath id="clip-path-36"><path class="cls-1" d="M12.3,63.11,9.44,59.73a4.1,4.1,0,0,0,3.37,1.57c6.68-.24,17-13.74,19.17-23.15l2.87,3.38C32.7,50.94,22.36,64.44,15.68,64.68A4.1,4.1,0,0,1,12.3,63.11Z"/></clipPath><clipPath id="clip-path-37"><path class="cls-1" d="M34.85,41.53,32,38.15c.46-7.27,1.07-12.33,1.43-13.21l2.86,3.38C35.91,29.2,35.31,34.26,34.85,41.53Z"/></clipPath><clipPath id="clip-path-38"><path class="cls-1" d="M38.52,22l2.86,3.38a.8.8,0,0,0-.69-.28,7.06,7.06,0,0,0-4.42,3.21l-2.86-3.38a7,7,0,0,1,4.42-3.21A.81.81,0,0,1,38.52,22Z"/></clipPath><clipPath id="clip-path-39"><path class="cls-1" d="M37.78,3.37l2.87,3.38a4,4,0,0,1,.82,2.57C41.55,14.39,35.78,19.94,32,22l-2.86-3.38c3.79-2.05,9.56-7.6,9.49-12.67A4,4,0,0,0,37.78,3.37Z"/></clipPath><clipPath id="clip-path-40"><path class="cls-1" d="M6,65.93,3.18,62.55C1.3,60.33.08,56.83,0,51.81-.32,29.41,20.15.6,36.12,0c2.51-.09,4.52.63,5.74,2.07l2.86,3.38A6.87,6.87,0,0,0,39,3.39C23,4,2.55,32.79,2.87,55.19,2.94,60.21,4.16,63.71,6,65.93Z"/></clipPath></defs><title>Recurso 3</title><g id="Capa_2" data-name="Capa 2"><g id="Capa_1-2" data-name="Capa 1"><g class="cls-2"><polygon class="cls-3" points="189.07 44.48 186.21 41.09 186.57 40.29 189.43 43.67 189.07 44.48"/><polygon class="cls-4" points="189.43 43.67 186.57 40.29 188.13 41.4 190.99 44.78 189.43 43.67"/><g class="cls-2"><g class="cls-5"><g class="cls-2"><path class="cls-6" d="M172.52,54.37,169.65,51l0,0,2.86,3.38,0-.06"/><path class="cls-7" d="M172.56,54.43l-2.86-3.38.27.3,2.87,3.38-.28-.3"/><path class="cls-8" d="M172.84,54.73,170,51.35a3.5,3.5,0,0,0,.28.27L173.11,55c-.09-.08-.18-.18-.27-.27"/><path class="cls-9" d="M173.11,55l-2.86-3.38.28.25,2.86,3.38-.28-.25"/><path class="cls-10" d="M173.39,55.25l-2.86-3.38.28.23,2.87,3.37a3.15,3.15,0,0,1-.29-.22"/><path class="cls-4" d="M173.68,55.47l-2.87-3.37.3.2L174,55.68a1.94,1.94,0,0,1-.29-.21"/><path class="cls-11" d="M174,55.68l-2.86-3.38a3.28,3.28,0,0,0,.31.2l2.86,3.38-.31-.2"/><path class="cls-12" d="M174.28,55.88l-2.86-3.38a3.65,3.65,0,0,0,.34.18l2.86,3.38-.34-.18"/><path class="cls-13" d="M174.62,56.06l-2.86-3.38.37.17L175,56.23l-.37-.17"/><path class="cls-14" d="M175,56.23l-2.86-3.38.43.17,2.87,3.38-.44-.17"/><path class="cls-15" d="M175.43,56.4,172.56,53l.56.16L176,56.56l-.55-.16"/><path class="cls-16" d="M176,56.56l-2.86-3.38a6.38,6.38,0,0,0,1,.15L177,56.71a6.38,6.38,0,0,1-1-.15"/><path class="cls-17" d="M177,56.71l-2.86-3.38a7.61,7.61,0,0,0,.83,0,4.57,4.57,0,0,0,.52-.05l2.86,3.38a4.36,4.36,0,0,1-.52,0,7.61,7.61,0,0,1-.83,0"/><path class="cls-16" d="M178.32,56.68l-2.86-3.38a4.32,4.32,0,0,0,.78-.16l2.87,3.38a4.26,4.26,0,0,1-.79.16"/><path class="cls-15" d="M179.11,56.52l-2.87-3.38.54-.18,2.87,3.38-.54.18"/><path class="cls-14" d="M179.65,56.34,176.78,53a4.47,4.47,0,0,0,.46-.19l2.87,3.38c-.16.07-.31.14-.46.19"/><path class="cls-13" d="M180.11,56.15l-2.87-3.38.43-.22,2.87,3.38-.43.22"/><path class="cls-12" d="M180.54,55.93l-2.87-3.38.42-.25L181,55.68l-.42.25"/><path class="cls-11" d="M181,55.68l-2.87-3.38c.14-.09.28-.18.42-.29l2.87,3.38c-.14.11-.28.2-.42.29"/><path class="cls-4" d="M181.38,55.39,178.51,52a4.59,4.59,0,0,0,.44-.33l2.87,3.38c-.15.12-.29.23-.44.33"/><path class="cls-10" d="M181.82,55.06,179,51.68c.16-.12.31-.25.47-.39l2.86,3.38c-.15.14-.31.27-.46.39"/><path class="cls-9" d="M182.28,54.67l-2.86-3.38c.17-.15.33-.3.5-.47l2.87,3.38c-.17.17-.34.32-.51.47"/><path class="cls-8" d="M182.79,54.2l-2.87-3.38c.19-.18.38-.38.56-.58l2.87,3.38-.56.58"/><path class="cls-7" d="M183.35,53.62l-2.87-3.38c.21-.23.43-.47.64-.73L184,52.89l-.64.73"/><path class="cls-6" d="M184,52.89l-2.87-3.38c.25-.3.49-.61.74-.95l2.87,3.38c-.25.34-.5.65-.74,1"/><path class="cls-18" d="M184.73,51.94l-2.87-3.38c.3-.4.6-.83.91-1.29l2.86,3.38q-.45.69-.9,1.29"/><path class="cls-19" d="M185.63,50.65l-2.86-3.38c.38-.57.77-1.19,1.16-1.85l2.86,3.38c-.39.66-.77,1.28-1.16,1.85"/><path class="cls-20" d="M186.79,48.8l-2.86-3.38c.52-.89,1-1.87,1.58-2.92l2.87,3.38c-.54,1-1.07,2-1.59,2.92"/><path class="cls-21" d="M188.38,45.88l-2.87-3.38c.23-.45.46-.92.69-1.4l2.87,3.37c-.23.49-.46,1-.69,1.41"/></g></g></g><g class="cls-2"><g class="cls-22"><g class="cls-2"><path class="cls-6" d="M148.45,78l-2.86-3.38h0l2.87,3.38h0"/><path class="cls-7" d="M148.47,78.05l-2.87-3.38.09.1,2.87,3.38-.09-.1"/><path class="cls-8" d="M148.56,78.15l-2.87-3.38.09.08,2.86,3.38-.08-.08"/><path class="cls-9" d="M148.64,78.23l-2.86-3.38.09.08,2.86,3.38-.09-.08"/><path class="cls-10" d="M148.73,78.31l-2.86-3.38L146,75l2.87,3.38a.39.39,0,0,1-.1-.08"/><path class="cls-4" d="M148.83,78.39,146,75l.1.07,2.87,3.38-.1-.07"/><path class="cls-11" d="M148.93,78.46l-2.87-3.38.1.06L149,78.52l-.1-.06"/><path class="cls-12" d="M149,78.52l-2.87-3.38.12.07,2.86,3.38-.11-.07"/><path class="cls-13" d="M149.14,78.59l-2.86-3.38.13.06,2.86,3.38-.13-.06"/><path class="cls-14" d="M149.27,78.65l-2.86-3.38.14,0,2.87,3.38-.15,0"/><path class="cls-15" d="M149.42,78.7l-2.87-3.38.19.06,2.87,3.37-.19,0"/><path class="cls-16" d="M149.61,78.75l-2.87-3.37.34.05,2.86,3.38a1.91,1.91,0,0,1-.33-.06"/><path class="cls-17" d="M149.94,78.81l-2.86-3.38h.28l.35,0,2.87,3.38-.35,0h-.29"/><path class="cls-16" d="M150.58,78.79l-2.87-3.38a3.15,3.15,0,0,0,.42-.09L151,78.7a3,3,0,0,1-.41.09"/><path class="cls-15" d="M151,78.7l-2.86-3.38.2-.07,2.87,3.38-.21.07"/><path class="cls-14" d="M151.2,78.63l-2.87-3.38a.47.47,0,0,0,.15-.06l2.86,3.38a.42.42,0,0,1-.14.06"/><path class="cls-13" d="M151.34,78.57l-2.86-3.38.13-.06,2.86,3.38-.13.06"/><path class="cls-12" d="M151.47,78.51l-2.86-3.38.1-.07,2.87,3.38-.11.07"/><path class="cls-11" d="M151.58,78.44l-2.87-3.38a.41.41,0,0,0,.11-.07l2.87,3.38-.11.07"/><path class="cls-4" d="M151.69,78.37,148.82,75l.09-.07,2.87,3.38-.09.07"/><path class="cls-10" d="M151.78,78.3l-2.87-3.38a.39.39,0,0,0,.1-.08l2.86,3.38-.09.08"/><path class="cls-9" d="M151.87,78.22,149,74.84l.09-.08L152,78.14l-.1.08"/><path class="cls-8" d="M152,78.14l-2.87-3.38.09-.1L152.06,78l-.09.1"/><path class="cls-7" d="M152.06,78l-2.87-3.38.09-.1,2.87,3.38-.09.1"/><path class="cls-6" d="M152.15,77.94l-2.87-3.38a.64.64,0,0,0,.1-.13l2.87,3.38-.1.13"/><path class="cls-18" d="M152.25,77.81l-2.87-3.38.1-.14,2.86,3.38-.09.14"/><path class="cls-19" d="M152.34,77.67l-2.86-3.38a1.42,1.42,0,0,0,.11-.18l2.87,3.38-.12.18"/><path class="cls-20" d="M152.46,77.49l-2.87-3.38.12-.22,2.87,3.38-.12.22"/><path class="cls-21" d="M152.58,77.27l-2.87-3.38a2.39,2.39,0,0,0,.13-.28L152.71,77c0,.1-.09.19-.13.28"/><path class="cls-23" d="M152.71,77l-2.87-3.38c.06-.14.12-.29.17-.44l2.87,3.38c-.06.15-.11.3-.17.44"/><path class="cls-24" d="M152.88,76.55,150,73.17c.08-.25.16-.52.23-.82l2.86,3.38a7.44,7.44,0,0,1-.22.82"/><path class="cls-25" d="M153.1,75.73l-2.86-3.38a23.42,23.42,0,0,0,.41-5.47l2.87,3.38a23.87,23.87,0,0,1-.42,5.47"/></g></g></g><polygon class="cls-26" points="153.52 70.25 150.65 66.88 150.57 61.31 153.44 64.69 153.52 70.25"/><g class="cls-2"><g class="cls-27"><g class="cls-2"><path class="cls-24" d="M146.72,79.49l-2.86-3.38,0,0,2.86,3.38,0,0"/><path class="cls-25" d="M146.68,79.44l-2.86-3.38a5,5,0,0,1-1.07-3.15,9.29,9.29,0,0,1,.25-2.2l2.87,3.38a8.79,8.79,0,0,0-.25,2.2,4.92,4.92,0,0,0,1.06,3.15"/><path class="cls-24" d="M145.87,74.09,143,70.71q.13-.57.33-1.14L146.19,73a9.72,9.72,0,0,0-.32,1.14"/><path class="cls-23" d="M146.19,73l-2.86-3.38c.12-.36.25-.71.41-1.07l2.86,3.38c-.15.36-.29.71-.41,1.07"/><path class="cls-21" d="M146.6,71.88l-2.86-3.38c.16-.38.34-.76.53-1.14l2.87,3.37c-.2.39-.38.77-.54,1.15"/><path class="cls-20" d="M147.14,70.73l-2.87-3.37q.33-.66.72-1.32l2.87,3.38c-.26.44-.5.88-.72,1.31"/><path class="cls-19" d="M147.86,69.42,145,66c.33-.56.69-1.13,1.07-1.7l2.87,3.38c-.38.57-.74,1.14-1.07,1.7"/><path class="cls-18" d="M148.93,67.72l-2.87-3.38c.58-.87,1.22-1.77,1.91-2.68L150.83,65c-.68.91-1.32,1.81-1.9,2.68"/><path class="cls-6" d="M150.83,65,148,61.66c.8-1.08,1.66-2.18,2.56-3.33l2.87,3.38c-.9,1.15-1.77,2.25-2.57,3.33"/></g></g></g><g class="cls-2"><g class="cls-28"><g class="cls-2"><path class="cls-24" d="M168,57.8l-2.86-3.38-.1-.12,2.87,3.38.09.12"/><path class="cls-25" d="M167.94,57.68l-2.87-3.38a13.62,13.62,0,0,1-2.82-7.23c-.06-.54-.09-1.09-.1-1.65,0-.71,0-1.41.06-2.09a22.72,22.72,0,0,1,.55-3.8l2.87,3.38a23.8,23.8,0,0,0-.56,3.8c0,.68-.06,1.38,0,2.09s0,1.11.1,1.65a13.54,13.54,0,0,0,2.82,7.23"/><path class="cls-24" d="M165.63,42.91l-2.87-3.38c.17-.7.36-1.38.58-2l2.87,3.37a19.17,19.17,0,0,0-.58,2"/><path class="cls-23" d="M166.21,40.87l-2.87-3.37c.17-.51.36-1,.56-1.48l2.87,3.38c-.21.48-.39,1-.56,1.47"/><path class="cls-21" d="M166.77,39.4,163.9,36c.17-.4.35-.79.55-1.17l2.86,3.38q-.28.57-.54,1.17"/><path class="cls-20" d="M167.31,38.23l-2.86-3.38c.17-.34.35-.67.53-1l2.87,3.38c-.19.31-.37.64-.54,1"/><path class="cls-19" d="M167.85,37.25,165,33.87c.17-.3.35-.58.53-.85l2.87,3.38c-.18.27-.36.55-.53.85"/><path class="cls-18" d="M168.38,36.4,165.51,33c.17-.26.35-.51.53-.75l2.87,3.38c-.19.24-.36.49-.53.75"/><path class="cls-6" d="M168.91,35.65,166,32.27c.17-.23.35-.46.53-.68L169.43,35c-.18.22-.35.45-.52.68"/><path class="cls-7" d="M169.43,35l-2.86-3.38c.17-.2.34-.4.52-.59L170,34.38c-.18.19-.36.39-.53.59"/><path class="cls-8" d="M170,34.38,167.09,31c.17-.19.35-.37.53-.55l2.87,3.38c-.18.18-.36.36-.53.55"/><path class="cls-9" d="M170.49,33.83l-2.87-3.38.54-.5L171,33.33l-.53.5"/><path class="cls-10" d="M171,33.33,168.16,30l.54-.46,2.87,3.38-.55.46"/><path class="cls-4" d="M171.57,32.87l-2.87-3.38.57-.43,2.86,3.38c-.19.14-.38.28-.56.43"/><path class="cls-11" d="M172.13,32.44l-2.86-3.38.58-.39,2.87,3.38-.59.39"/><path class="cls-12" d="M172.72,32.05l-2.87-3.38c.2-.13.41-.25.61-.36l2.87,3.38c-.21.11-.41.23-.61.36"/><path class="cls-13" d="M173.33,31.69l-2.87-3.38c.23-.12.45-.24.68-.34L174,31.35c-.22.1-.45.22-.67.34"/><path class="cls-14" d="M174,31.35,171.14,28q.38-.18.75-.33L174.76,31c-.26.1-.51.21-.76.33"/><path class="cls-15" d="M174.76,31l-2.87-3.38c.3-.11.61-.21.92-.3l2.86,3.38c-.31.09-.61.19-.91.3"/><path class="cls-16" d="M175.67,30.72l-2.86-3.38a9.12,9.12,0,0,1,1.38-.28l2.86,3.38a9.65,9.65,0,0,0-1.38.28"/><path class="cls-17" d="M177.05,30.44l-2.86-3.38a8.85,8.85,0,0,1,.9-.08c.35,0,.68,0,1,0L179,30.38c-.31,0-.65,0-1,0s-.6,0-.9.08"/><path class="cls-16" d="M179,30.38,176.09,27a6.84,6.84,0,0,1,.94.15l2.86,3.38a6.6,6.6,0,0,0-.94-.15"/><path class="cls-15" d="M179.89,30.53,177,27.15l.49.14,2.87,3.38-.5-.14"/><path class="cls-14" d="M180.39,30.67l-2.87-3.38.37.14,2.86,3.38-.36-.14"/><path class="cls-13" d="M180.75,30.81l-2.86-3.38.29.14L181.05,31l-.3-.14"/><path class="cls-12" d="M181.05,31l-2.87-3.38.25.13,2.86,3.38-.24-.13"/><path class="cls-11" d="M181.29,31.08l-2.86-3.38.21.13,2.87,3.38-.22-.13"/><path class="cls-4" d="M181.51,31.21l-2.87-3.38.19.14,2.87,3.38-.19-.14"/><path class="cls-10" d="M181.7,31.35,178.83,28l.18.14,2.87,3.38-.18-.14"/><path class="cls-9" d="M181.88,31.49,179,28.11l.16.14L182,31.63l-.16-.14"/><path class="cls-8" d="M182,31.63l-2.87-3.38.15.15,2.87,3.38-.15-.15"/><path class="cls-7" d="M182.19,31.78l-2.87-3.38.15.16,2.86,3.38-.14-.16"/><path class="cls-6" d="M182.33,31.94l-2.86-3.38,0,0L182.36,32l0,0"/></g></g></g><g class="cls-2"><g class="cls-29"><g class="cls-2"><path class="cls-6" d="M158.39,56.85l-2.86-3.38.57-.75L159,56.1q-.28.39-.57.75"/><path class="cls-18" d="M159,56.1l-2.86-3.38c.9-1.21,1.87-2.58,2.84-4l2.87,3.38c-1,1.46-1.95,2.83-2.85,4"/><path class="cls-19" d="M161.81,52.06l-2.87-3.38c.81-1.22,1.62-2.5,2.38-3.8l2.87,3.38c-.77,1.3-1.57,2.58-2.38,3.8"/><path class="cls-20" d="M164.19,48.26l-2.87-3.38c.31-.52.6-1,.89-1.55l2.86,3.38c-.28.52-.58,1-.88,1.55"/></g></g></g><g class="cls-2"><g class="cls-30"><g class="cls-2"><path class="cls-12" d="M169.9,46.49,167,43.11c.28-.16.58-.33.88-.53L170.77,46c-.3.2-.59.37-.87.53"/><path class="cls-11" d="M170.77,46l-2.86-3.38c.4-.25.81-.53,1.23-.83L172,45.13c-.43.3-.84.58-1.24.83"/><path class="cls-4" d="M172,45.13l-2.87-3.38c.39-.28.79-.57,1.19-.89l2.86,3.38c-.39.32-.79.61-1.18.89"/><path class="cls-10" d="M173.19,44.24l-2.86-3.38c.34-.28.69-.57,1-.87l2.87,3.38c-.34.3-.69.59-1,.87"/><path class="cls-9" d="M174.23,43.37,171.36,40c.3-.26.6-.54.88-.82l2.87,3.38c-.29.28-.58.56-.88.82"/><path class="cls-8" d="M175.11,42.55l-2.87-3.38c.25-.24.49-.48.72-.73l2.86,3.38c-.23.25-.47.49-.71.73"/><path class="cls-7" d="M175.82,41.82,173,38.44c.2-.23.4-.45.59-.68l2.86,3.38c-.18.23-.38.45-.59.68"/><path class="cls-6" d="M176.41,41.14l-2.86-3.38c.17-.2.33-.41.49-.62l2.86,3.38c-.15.21-.32.42-.49.62"/><path class="cls-18" d="M176.9,40.52,174,37.14l.4-.57L177.31,40l-.41.57"/><path class="cls-19" d="M177.31,40l-2.87-3.38c.12-.18.23-.36.34-.54l2.86,3.38q-.15.27-.33.54"/><path class="cls-20" d="M177.64,39.41,174.78,36a5.21,5.21,0,0,0,.28-.52l2.87,3.38a5.29,5.29,0,0,1-.29.52"/><path class="cls-21" d="M177.93,38.89l-2.87-3.38q.13-.25.24-.51l2.87,3.38-.24.51"/><path class="cls-23" d="M178.17,38.38,175.3,35a5.55,5.55,0,0,0,.2-.52l2.87,3.38c-.06.17-.13.35-.2.52"/><path class="cls-24" d="M178.37,37.86l-2.87-3.38c.07-.2.12-.39.17-.59l2.87,3.38c0,.2-.11.39-.17.59"/><path class="cls-25" d="M178.54,37.27l-2.87-3.38a4.69,4.69,0,0,0,.14-1.23,3.4,3.4,0,0,0-.72-2.17L178,33.87a3.4,3.4,0,0,1,.72,2.17,5.15,5.15,0,0,1-.13,1.23"/><path class="cls-24" d="M178,33.87l-2.86-3.38,0,0,2.87,3.38,0,0"/></g></g></g><polygon class="cls-26" points="153.4 61.71 150.53 58.33 150.43 51.27 153.29 54.65 153.4 61.71"/><g class="cls-2"><g class="cls-31"><g class="cls-2"><path class="cls-6" d="M142.5,56.71l-2.86-3.38,0,0,2.87,3.38,0,0"/><path class="cls-7" d="M142.54,56.75l-2.87-3.38.2.21L142.73,57l-.19-.21"/><path class="cls-8" d="M142.73,57l-2.86-3.38.2.2,2.87,3.38-.21-.2"/><path class="cls-9" d="M142.94,57.16l-2.87-3.38.19.17,2.87,3.38a1.54,1.54,0,0,1-.19-.17"/><path class="cls-10" d="M143.13,57.33,140.26,54l.2.16,2.86,3.38-.19-.16"/><path class="cls-4" d="M143.32,57.49l-2.86-3.38.2.14,2.87,3.38-.21-.14"/><path class="cls-11" d="M143.53,57.63l-2.87-3.38.21.13,2.86,3.38-.2-.13"/><path class="cls-12" d="M143.73,57.76l-2.86-3.38.23.12L144,57.88l-.23-.12"/><path class="cls-13" d="M144,57.88,141.1,54.5l.24.12L144.21,58l-.25-.12"/><path class="cls-14" d="M144.21,58l-2.87-3.38.3.11,2.86,3.38-.29-.11"/><path class="cls-15" d="M144.5,58.11l-2.86-3.38a3.37,3.37,0,0,0,.34.09l2.87,3.38a3.58,3.58,0,0,1-.35-.09"/><path class="cls-16" d="M144.85,58.2,142,54.82a4.22,4.22,0,0,0,.62.1l2.87,3.38a4,4,0,0,1-.62-.1"/><path class="cls-17" d="M145.47,58.3l-2.87-3.38a5.33,5.33,0,0,0,.57,0l.29,0,2.87,3.38-.3,0a5.15,5.15,0,0,1-.56,0"/><path class="cls-16" d="M146.33,58.29l-2.87-3.38a3.63,3.63,0,0,0,.64-.13L147,58.16a3.83,3.83,0,0,1-.64.13"/><path class="cls-15" d="M147,58.16l-2.87-3.38.41-.13L147.37,58l-.4.13"/><path class="cls-14" d="M147.37,58l-2.86-3.38.36-.16,2.87,3.38-.37.16"/><path class="cls-13" d="M147.74,57.87l-2.87-3.38a3,3,0,0,0,.36-.18l2.86,3.38a2.91,2.91,0,0,1-.35.18"/><path class="cls-12" d="M148.09,57.69l-2.86-3.38a3.13,3.13,0,0,0,.34-.21l2.87,3.38a3.24,3.24,0,0,1-.35.21"/><path class="cls-11" d="M148.44,57.48l-2.87-3.38.36-.23,2.86,3.38-.35.23"/><path class="cls-4" d="M148.79,57.25l-2.86-3.38.36-.28L149.16,57l-.37.28"/><path class="cls-10" d="M149.16,57l-2.87-3.38.38-.32,2.87,3.38-.38.32"/><path class="cls-9" d="M149.54,56.65l-2.87-3.38.4-.37,2.86,3.38-.39.37"/><path class="cls-8" d="M149.93,56.28l-2.86-3.38c.14-.13.27-.28.41-.42l2.86,3.38c-.13.14-.27.29-.41.42"/><path class="cls-7" d="M150.34,55.86l-2.86-3.38.43-.49,2.86,3.38c-.14.16-.28.33-.43.49"/><path class="cls-6" d="M150.77,55.37,147.91,52c.15-.19.3-.37.44-.56l2.86,3.38c-.14.19-.29.37-.44.56"/><path class="cls-18" d="M151.21,54.81l-2.86-3.38c.15-.21.3-.42.44-.64l2.87,3.38c-.14.22-.29.43-.45.64"/><path class="cls-19" d="M151.66,54.17l-2.87-3.38a8,8,0,0,0,.43-.69l2.87,3.38c-.14.24-.28.47-.43.69"/><path class="cls-20" d="M152.09,53.48l-2.87-3.38c.15-.24.28-.49.41-.73l2.86,3.38c-.12.24-.26.49-.4.73"/><path class="cls-21" d="M152.49,52.75l-2.86-3.38c.13-.26.25-.52.36-.77L152.85,52c-.11.25-.23.51-.36.77"/><path class="cls-23" d="M152.85,52,150,48.6a8.21,8.21,0,0,0,.29-.78l2.87,3.38q-.14.39-.3.78"/><path class="cls-24" d="M153.15,51.2l-2.87-3.38c0-.09.07-.19.1-.28l2.86,3.38-.09.28"/></g></g></g><path class="cls-32" d="M189.43,43.67,191,44.78l-.36.79C185.42,56.45,180.08,60.86,175.47,61c-6,.22-9.71-4.55-10.35-10.58-.06-.54-.09-1.09-.1-1.65s0-1.41,0-2.09c.64-9.58,6.58-16.12,12.88-16.35,3.45-.13,5.35,1.78,5.39,4.39.07,5-6.17,9-13.27,13.63.79,5.17,3.57,8.5,7.73,8.35,3.53-.13,7.16-3.7,11.27-12.26Zm-19.54,2v.86c3.42-2,8.83-6.37,8.77-10.45,0-2-1.28-3.16-2.82-3.11-2.62.1-6.09,3.78-6,12.7"/><polygon class="cls-26" points="153.24 50.92 150.38 47.54 150.22 37.01 153.09 40.39 153.24 50.92"/><polygon class="cls-26" points="153.01 34.79 150.14 31.41 150.14 30.96 153 34.34 153.01 34.79"/><g class="cls-2"><g class="cls-33"><g class="cls-2"><path class="cls-25" d="M153.09,40.39,150.22,37a7.86,7.86,0,0,0-1.69-4.95l2.86,3.38a7.8,7.8,0,0,1,1.7,5"/><path class="cls-24" d="M151.39,35.44l-2.86-3.38-.06-.07,2.87,3.38,0,.07"/></g></g></g><g class="cls-2"><g class="cls-34"><g class="cls-2"><path class="cls-25" d="M153,34.34,150.14,31a1.48,1.48,0,0,1,.05-.47l2.86,3.38a2.42,2.42,0,0,0-.05.47"/><path class="cls-24" d="M153.05,33.87l-2.86-3.38a1.6,1.6,0,0,1,.05-.21l2.87,3.38a1.66,1.66,0,0,0-.06.21"/><path class="cls-23" d="M153.11,33.66l-2.87-3.38.06-.16,2.87,3.38-.06.16"/><path class="cls-21" d="M153.17,33.5l-2.87-3.38c0-.05,0-.1.07-.14l2.87,3.38a.61.61,0,0,0-.07.14"/><path class="cls-20" d="M153.24,33.36,150.37,30c0-.05,0-.09.07-.14l2.87,3.38a.91.91,0,0,0-.07.14"/><path class="cls-19" d="M153.31,33.22l-2.87-3.38.08-.12,2.87,3.38-.08.12"/><path class="cls-18" d="M153.39,33.1l-2.87-3.38.09-.13L153.48,33l-.09.13"/><path class="cls-6" d="M153.48,33l-2.87-3.38a1.13,1.13,0,0,0,.1-.13l2.87,3.38a1.13,1.13,0,0,0-.1.13"/><path class="cls-7" d="M153.58,32.84l-2.87-3.38.12-.13,2.86,3.38-.11.13"/><path class="cls-8" d="M153.69,32.71l-2.86-3.38.12-.13,2.87,3.38-.13.13"/><path class="cls-9" d="M153.82,32.58,151,29.2l.15-.13L154,32.45c-.06,0-.1.09-.15.13"/><path class="cls-10" d="M154,32.45l-2.87-3.38.17-.15,2.87,3.38-.17.15"/><path class="cls-4" d="M154.14,32.3l-2.87-3.38.2-.15,2.86,3.38-.19.15"/><path class="cls-11" d="M154.33,32.15l-2.86-3.38.23-.15L154.57,32l-.24.15"/><path class="cls-12" d="M154.57,32l-2.87-3.38.29-.17,2.86,3.38-.28.17"/><path class="cls-13" d="M154.85,31.83,152,28.45a3.59,3.59,0,0,1,.34-.17l2.86,3.38-.34.17"/><path class="cls-14" d="M155.19,31.66l-2.86-3.38a3,3,0,0,1,.41-.18l2.86,3.38a3.65,3.65,0,0,0-.41.18"/><path class="cls-15" d="M155.6,31.48l-2.86-3.38a5.08,5.08,0,0,1,.51-.17l2.87,3.38a5.25,5.25,0,0,0-.52.17"/><path class="cls-16" d="M156.12,31.31l-2.87-3.38a5.33,5.33,0,0,1,.71-.15l2.86,3.38a4.89,4.89,0,0,0-.7.15"/><path class="cls-17" d="M156.82,31.16,154,27.78l.33,0h.41l2.87,3.38h-.41l-.34,0"/><path class="cls-16" d="M157.57,31.14l-2.87-3.38.25,0,2.86,3.38-.24,0"/><path class="cls-15" d="M157.81,31.18,155,27.8l.09,0,2.87,3.38-.1,0"/><path class="cls-14" d="M157.91,31.2,155,27.82l.07,0L158,31.23l-.06,0"/><path class="cls-13" d="M158,31.23l-2.86-3.38,0,0L158,31.25l-.05,0"/><path class="cls-12" d="M158,31.25l-2.87-3.38,0,0,2.86,3.38,0,0"/><path class="cls-11" d="M158.05,31.27l-2.86-3.38,0,0,2.86,3.38,0,0"/><path class="cls-4" d="M158.08,31.29l-2.86-3.38h0l2.87,3.38h0"/><path class="cls-10" d="M158.11,31.3l-2.87-3.38,0,0,2.86,3.38,0,0"/><path class="cls-9" d="M158.13,31.32l-2.86-3.38,0,0,2.86,3.38,0,0"/><path class="cls-8" d="M158.15,31.34,155.29,28l0,0,2.86,3.38,0,0"/><path class="cls-7" d="M158.17,31.36,155.31,28l0,0,2.86,3.38,0,0"/><polyline class="cls-6" points="158.19 31.38 155.33 28 155.33 28 158.19 31.38 158.19 31.38"/></g></g></g><g class="cls-2"><g class="cls-35"><g class="cls-2"><path class="cls-24" d="M137.8,59.41,134.93,56l-.09-.11,2.87,3.38.09.11"/><path class="cls-25" d="M137.71,59.3l-2.87-3.38c-1.61-2-2.77-4.93-3.09-9-.05-.59-.08-1.21-.08-1.85a21.9,21.9,0,0,1,.09-2.56,24.83,24.83,0,0,1,.54-3.47l2.87,3.38a23.45,23.45,0,0,0-.55,3.47c-.07.85-.1,1.71-.09,2.56,0,.64,0,1.26.09,1.85.32,4,1.48,7,3.09,9"/><path class="cls-24" d="M135.17,42.45l-2.87-3.38c.17-.71.36-1.4.59-2.07l2.86,3.38c-.22.67-.42,1.36-.58,2.07"/><path class="cls-23" d="M135.75,40.38,132.89,37c.16-.48.34-1,.53-1.41L136.29,39c-.2.45-.37.93-.54,1.41"/><path class="cls-21" d="M136.29,39l-2.87-3.38q.24-.56.51-1.08l2.86,3.38c-.18.35-.34.71-.5,1.08"/><path class="cls-20" d="M136.79,37.89l-2.86-3.38c.15-.3.3-.58.46-.86L137.26,37c-.16.28-.32.56-.47.86"/><path class="cls-19" d="M137.26,37l-2.87-3.38c.15-.24.29-.48.45-.71l2.86,3.38c-.15.23-.3.47-.44.71"/><path class="cls-18" d="M137.7,36.32l-2.86-3.38c.13-.2.27-.41.42-.6l2.87,3.38c-.15.19-.29.4-.43.6"/><path class="cls-6" d="M138.13,35.72l-2.87-3.38.42-.54,2.86,3.38c-.14.18-.28.35-.41.54"/><path class="cls-7" d="M138.54,35.18l-2.86-3.38c.13-.16.27-.31.41-.47L139,34.71l-.41.47"/><path class="cls-8" d="M139,34.71l-2.86-3.38c.13-.14.26-.28.4-.41l2.87,3.38c-.14.13-.27.27-.41.41"/><path class="cls-9" d="M139.36,34.3l-2.87-3.38.41-.38,2.86,3.38-.4.38"/><path class="cls-10" d="M139.76,33.92l-2.86-3.38.41-.35,2.86,3.38-.41.35"/><path class="cls-4" d="M140.17,33.57l-2.86-3.38.43-.32,2.86,3.38-.43.32"/><path class="cls-11" d="M140.6,33.25l-2.86-3.38.44-.29L141,33l-.44.29"/><path class="cls-12" d="M141,33l-2.86-3.38a5.55,5.55,0,0,1,.48-.29l2.86,3.38L141,33"/><path class="cls-13" d="M141.52,32.67l-2.86-3.38.51-.26L142,32.41l-.52.26"/><path class="cls-14" d="M142,32.41,139.17,29a6.57,6.57,0,0,1,.61-.26l2.86,3.38c-.2.08-.4.16-.6.26"/><path class="cls-15" d="M142.64,32.15l-2.86-3.38c.25-.1.51-.18.78-.26l2.86,3.38c-.26.08-.52.16-.78.26"/><path class="cls-16" d="M143.42,31.89l-2.86-3.38a10.35,10.35,0,0,1,1.28-.26l2.86,3.38a10.35,10.35,0,0,0-1.28.26"/><path class="cls-17" d="M144.7,31.63l-2.86-3.38c.28,0,.57-.06.87-.07s.85,0,1.27,0l2.86,3.38c-.41,0-.84,0-1.26,0s-.59,0-.88.07"/><path class="cls-16" d="M146.84,31.59,144,28.21a9.5,9.5,0,0,1,1.4.23l2.86,3.38a9.09,9.09,0,0,0-1.4-.23"/><path class="cls-15" d="M148.24,31.82l-2.86-3.38a7.66,7.66,0,0,1,.82.23l2.87,3.38a7.84,7.84,0,0,0-.83-.23"/><path class="cls-14" d="M149.07,32.05l-2.87-3.38.64.25,2.87,3.38-.64-.25"/><path class="cls-13" d="M149.71,32.3l-2.87-3.38a5.05,5.05,0,0,1,.53.24l2.87,3.38c-.18-.09-.35-.17-.53-.24"/><path class="cls-12" d="M150.24,32.54l-2.87-3.38.47.25,2.86,3.38-.46-.25"/><path class="cls-11" d="M150.7,32.79l-2.86-3.38.41.26,2.87,3.38-.42-.26"/><path class="cls-4" d="M151.12,33.05l-2.87-3.38.38.27,2.87,3.38-.38-.27"/><path class="cls-10" d="M151.5,33.32l-2.87-3.38c.12.09.24.18.35.28l2.87,3.38-.35-.28"/><path class="cls-9" d="M151.85,33.6,149,30.22l.33.29,2.86,3.38-.32-.29"/><path class="cls-8" d="M152.17,33.89l-2.86-3.38.31.3,2.86,3.38-.31-.3"/><path class="cls-7" d="M152.48,34.19l-2.86-3.38.29.33,2.87,3.38c-.1-.11-.19-.22-.3-.33"/><path class="cls-6" d="M152.78,34.52l-2.87-3.38.06.06,2.86,3.38-.05-.06"/></g></g></g><g class="cls-2"><g class="cls-36"><g class="cls-2"><polyline class="cls-6" points="125.72 58.23 122.86 54.85 122.87 54.86 125.73 58.24 125.72 58.23"/><path class="cls-7" d="M125.73,58.24l-2.86-3.38,0,.06,2.87,3.38-.06-.06"/><path class="cls-8" d="M125.79,58.3l-2.87-3.38,0,0,2.87,3.38a.12.12,0,0,1,0-.05"/><path class="cls-9" d="M125.84,58.35,123,55l0,.05,2.87,3.38s0,0,0,0"/><path class="cls-10" d="M125.89,58.4,123,55l0,0,2.87,3.38,0,0"/><path class="cls-4" d="M125.94,58.44l-2.87-3.38.05,0L126,58.47l0,0"/><path class="cls-11" d="M126,58.47l-2.86-3.38,0,0L126,58.5l-.06,0"/><path class="cls-12" d="M126,58.5l-2.87-3.38.06,0,2.86,3.38,0,0"/><path class="cls-13" d="M126.09,58.53l-2.86-3.38,0,0,2.87,3.38-.06,0"/><path class="cls-14" d="M126.15,58.56l-2.87-3.38.07,0,2.86,3.38-.06,0"/><path class="cls-15" d="M126.21,58.58l-2.86-3.38.09,0,2.86,3.38-.09,0"/><path class="cls-16" d="M126.3,58.61l-2.86-3.38.16,0,2.87,3.38-.17,0"/><path class="cls-17" d="M126.47,58.63l-2.87-3.38h.15l2.86,3.38h-.14"/><path class="cls-16" d="M126.61,58.62l-2.86-3.38a.85.85,0,0,0,.22,0l2.87,3.38a.93.93,0,0,1-.23,0"/><path class="cls-15" d="M126.84,58.58,124,55.2l.14,0L127,58.54l-.14,0"/><path class="cls-14" d="M127,58.54l-2.87-3.38.12,0,2.87,3.37-.12.06"/><path class="cls-13" d="M127.1,58.48l-2.87-3.37.12-.07,2.87,3.38a.34.34,0,0,1-.12.06"/><path class="cls-12" d="M127.22,58.42,124.35,55l.13-.07,2.86,3.38-.12.07"/><path class="cls-11" d="M127.34,58.35,124.48,55a.94.94,0,0,0,.12-.09l2.87,3.38a1,1,0,0,1-.13.09"/><path class="cls-4" d="M127.47,58.26l-2.87-3.38.15-.11,2.86,3.38-.14.11"/><path class="cls-10" d="M127.61,58.15l-2.86-3.38.15-.13L127.77,58l-.16.13"/><path class="cls-9" d="M127.77,58l-2.87-3.38a1.54,1.54,0,0,0,.19-.17L128,57.85l-.19.17"/><path class="cls-8" d="M128,57.85l-2.87-3.38.22-.23,2.87,3.38-.22.23"/><path class="cls-7" d="M128.18,57.62l-2.87-3.38c.1-.1.19-.21.28-.32l2.87,3.38-.28.32"/><path class="cls-6" d="M128.46,57.3l-2.87-3.38.37-.47,2.86,3.38c-.12.17-.24.32-.36.47"/><path class="cls-18" d="M128.82,56.83,126,53.45c.17-.23.34-.48.52-.75l2.87,3.38c-.18.27-.36.52-.53.75"/><path class="cls-19" d="M129.35,56.08l-2.87-3.38c.28-.41.56-.87.87-1.39l2.86,3.38c-.3.52-.59,1-.86,1.39"/><path class="cls-20" d="M130.21,54.69l-2.86-3.38c.55-.94,1.15-2.07,1.83-3.4l2.87,3.38c-.68,1.33-1.29,2.46-1.84,3.4"/><path class="cls-21" d="M132.05,51.29l-2.87-3.38c.49-1,1-2,1.59-3.23l2.86,3.38c-.57,1.19-1.09,2.27-1.58,3.23"/></g></g></g><polygon class="cls-37" points="133.63 48.06 130.77 44.68 131.76 42.54 134.62 45.92 133.63 48.06"/><g class="cls-2"><g class="cls-38"><g class="cls-2"><path class="cls-24" d="M122.29,61.66l-2.87-3.38,0-.06,2.87,3.38.05.06"/><path class="cls-25" d="M122.24,61.6l-2.87-3.38c-1.22-1.49-1.79-4.11-2.05-7.07l2.87,3.38c.26,3,.82,5.58,2,7.07"/></g></g></g><g class="cls-2"><g class="cls-39"><g class="cls-2"><path class="cls-6" d="M108.92,57.28l-2.87-3.38,0,.05L109,57.33l0,0"/><path class="cls-7" d="M109,57.33,106.09,54l.22.24,2.87,3.38-.22-.24"/><path class="cls-8" d="M109.18,57.57l-2.87-3.38.23.22,2.86,3.38c-.07-.07-.15-.14-.22-.22"/><path class="cls-9" d="M109.4,57.79l-2.86-3.38.22.2L109.63,58l-.23-.2"/><path class="cls-10" d="M109.63,58l-2.87-3.38.23.18,2.86,3.38-.22-.18"/><path class="cls-4" d="M109.85,58.17,107,54.79a1.88,1.88,0,0,0,.23.16l2.87,3.38-.24-.16"/><path class="cls-11" d="M110.09,58.33,107.22,55l.24.15,2.87,3.38a1.2,1.2,0,0,1-.24-.15"/><path class="cls-12" d="M110.33,58.48l-2.87-3.38.27.15,2.86,3.38a2.2,2.2,0,0,1-.26-.15"/><path class="cls-13" d="M110.59,58.63l-2.86-3.38.28.13,2.87,3.38-.29-.13"/><path class="cls-14" d="M110.88,58.76,108,55.38l.34.13,2.86,3.38-.33-.13"/><path class="cls-15" d="M111.21,58.89l-2.86-3.38a3,3,0,0,0,.43.12L111.64,59a3.45,3.45,0,0,1-.43-.12"/><path class="cls-16" d="M111.64,59l-2.86-3.38a5.37,5.37,0,0,0,.7.11l2.87,3.38a5.52,5.52,0,0,1-.71-.11"/><path class="cls-17" d="M112.35,59.12l-2.87-3.38a4.42,4.42,0,0,0,.63,0L113,59.13a4.37,4.37,0,0,1-.63,0"/></g></g></g><path class="cls-32" d="M165.07,46.71c0,.68-.06,1.38,0,2.09s0,1.11.1,1.65a106.82,106.82,0,0,1-6.68,9.61l.11,8.1c.14,9.18-3.26,12.75-7.87,12.92a4.62,4.62,0,0,1-5.06-4.79c-.07-4.36,3.4-9,7.78-14.58l-.11-7.06c-2.33,4.75-6,7.43-9.49,7.56-4.37.16-8.53-3.62-9.18-11.88-.05-.59-.08-1.21-.09-1.85,0-.85,0-1.71.09-2.56.62-7.2,4.29-14.11,11-14.36A8.93,8.93,0,0,1,153,34.79v-.45c0-1.9,2.62-3.15,4.16-3.21.86,0,1.17.18,1.17.7,0,.78-.25,3.45-.17,8.82l.23,16.2A85.35,85.35,0,0,0,165.07,46.71Zm-11.83,4.21-.15-10.53c-.07-4.51-3.18-7.24-6.26-7.13-4.83.18-7.07,6.46-7,12.67C140,53.54,142,58.47,146,58.32c3.08-.12,6.25-4.23,7.21-7.4m.28,19.34-.08-5.57c-3.36,4.24-5.73,8.09-5.69,11.3,0,1.54.94,2.88,2.48,2.82s3.4-.9,3.29-8.55"/><polygon class="cls-40" points="120.81 38.6 117.95 35.22 118.35 31.58 121.22 34.96 120.81 38.6"/><g class="cls-2"><g class="cls-41"><g class="cls-2"><path class="cls-17" d="M113,59.13l-2.87-3.38h.21l2.86,3.38H113"/><path class="cls-16" d="M113.18,59.12l-2.86-3.38a4,4,0,0,0,.56-.11L113.75,59a3.82,3.82,0,0,1-.57.11"/><path class="cls-15" d="M113.75,59l-2.87-3.38.37-.12,2.86,3.38-.36.12"/><path class="cls-14" d="M114.11,58.89l-2.86-3.38.3-.13,2.87,3.38-.31.13"/><path class="cls-13" d="M114.42,58.76l-2.87-3.38.3-.15,2.86,3.38-.29.15"/><path class="cls-12" d="M114.71,58.61l-2.86-3.38.28-.17L115,58.44l-.28.17"/><path class="cls-11" d="M115,58.44l-2.86-3.38.28-.19,2.87,3.38-.29.19"/><path class="cls-4" d="M115.28,58.25l-2.87-3.38.29-.22L115.56,58l-.28.22"/><path class="cls-10" d="M115.56,58l-2.86-3.38.3-.25,2.86,3.38-.3.25"/><path class="cls-9" d="M115.86,57.78,113,54.4l.3-.28,2.87,3.38-.31.28"/><path class="cls-8" d="M116.17,57.5l-2.87-3.38.32-.33,2.87,3.38-.32.33"/><path class="cls-7" d="M116.49,57.17l-2.87-3.38c.12-.13.23-.25.34-.39l2.86,3.38-.33.39"/><path class="cls-6" d="M116.82,56.78,114,53.4c.12-.14.23-.29.35-.44l2.86,3.38c-.11.15-.23.3-.35.44"/><path class="cls-18" d="M117.17,56.34,114.31,53c.12-.17.25-.35.37-.54l2.87,3.38c-.13.19-.25.37-.38.54"/><path class="cls-19" d="M117.55,55.8l-2.87-3.38c.14-.2.27-.42.4-.64L118,55.16c-.13.22-.27.44-.4.64"/><path class="cls-20" d="M118,55.16l-2.87-3.38c.15-.25.29-.51.43-.79l2.87,3.38c-.14.28-.28.54-.43.79"/><path class="cls-21" d="M118.38,54.37,115.51,51c.16-.31.32-.64.46-1l2.87,3.38c-.15.34-.3.67-.46,1"/><path class="cls-23" d="M118.84,53.39,116,50c.18-.42.35-.86.5-1.32l2.87,3.38c-.16.46-.32.9-.5,1.32"/><path class="cls-24" d="M119.34,52.07l-2.87-3.38c.21-.61.39-1.26.55-1.94l2.87,3.38c-.16.68-.34,1.33-.55,1.94"/><path class="cls-25" d="M119.89,50.13,117,46.75a25.54,25.54,0,0,0,.63-6.18,11,11,0,0,0-2.37-6.69l2.86,3.38A11.09,11.09,0,0,1,120.52,44a26,26,0,0,1-.63,6.18"/><path class="cls-24" d="M118.14,37.26l-2.86-3.38-.08-.09,2.87,3.38.07.09"/></g></g></g><g class="cls-2"><g class="cls-42"><g class="cls-2"><polyline class="cls-6" points="91.42 59.38 88.56 56 88.56 56.01 91.43 59.39 91.42 59.38"/><path class="cls-7" d="M91.43,59.39,88.56,56l0,.05,2.87,3.38s0,0,0,0"/><path class="cls-8" d="M91.48,59.44l-2.87-3.38,0,0,2.87,3.38a.12.12,0,0,1,0-.05"/><path class="cls-9" d="M91.53,59.49l-2.87-3.38,0,0,2.87,3.38,0,0"/><path class="cls-10" d="M91.58,59.54l-2.87-3.38.06,0,2.86,3.38,0,0"/><path class="cls-4" d="M91.63,59.58,88.77,56.2l0,0,2.87,3.38-.06,0"/><path class="cls-11" d="M91.69,59.62l-2.87-3.38.07,0,2.86,3.38-.06,0"/><path class="cls-12" d="M91.75,59.66l-2.86-3.38.07,0,2.86,3.38-.07,0"/><path class="cls-13" d="M91.82,59.7,89,56.32l.08,0,2.87,3.38-.09,0"/><path class="cls-14" d="M91.91,59.74,89,56.36l.11,0L92,59.78l-.11,0"/><path class="cls-15" d="M92,59.78,89.15,56.4l.15,0,2.87,3.38-.15,0"/><path class="cls-16" d="M92.17,59.82,89.3,56.44l.32.05,2.86,3.38-.31,0"/><path class="cls-17" d="M92.48,59.87l-2.86-3.38h.56l2.87,3.38h-.57"/></g></g></g><g class="cls-2"><g class="cls-43"><g class="cls-2"><path class="cls-25" d="M121.22,35l-2.87-3.38,0-.18,2.86,3.38a1.1,1.1,0,0,0,0,.18"/><path class="cls-24" d="M121.24,34.78l-2.86-3.38a1,1,0,0,1,.05-.16l2.86,3.38c0,.05,0,.11-.05.16"/><path class="cls-23" d="M121.29,34.62l-2.86-3.38a.56.56,0,0,1,0-.12l2.87,3.38a.43.43,0,0,0,0,.12"/><path class="cls-21" d="M121.34,34.5l-2.87-3.38,0-.12,2.87,3.38a.61.61,0,0,0,0,.12"/><path class="cls-20" d="M121.39,34.38,118.52,31l.06-.09,2.86,3.38a.41.41,0,0,0,0,.09"/><path class="cls-19" d="M121.44,34.29l-2.86-3.38a.31.31,0,0,1,0-.1l2.87,3.38-.06.1"/><path class="cls-18" d="M121.5,34.19l-2.87-3.38.07-.09,2.87,3.38-.07.09"/><path class="cls-6" d="M121.57,34.1l-2.87-3.38.07-.09L121.64,34l-.07.09"/><path class="cls-7" d="M121.64,34l-2.87-3.38.09-.1,2.86,3.38-.08.1"/><path class="cls-8" d="M121.72,33.91l-2.86-3.38.09-.1,2.87,3.38-.1.1"/><path class="cls-9" d="M121.82,33.81,119,30.43l.11-.1,2.87,3.38-.11.1"/><path class="cls-10" d="M121.93,33.71l-2.87-3.38.13-.11,2.87,3.38-.13.11"/><path class="cls-4" d="M122.06,33.6l-2.87-3.38.16-.12,2.87,3.38-.16.12"/><path class="cls-11" d="M122.22,33.48l-2.87-3.38.19-.12,2.87,3.38-.19.12"/><path class="cls-12" d="M122.41,33.36,119.54,30l.25-.15,2.86,3.38c-.08,0-.16.09-.24.15"/><path class="cls-13" d="M122.65,33.21l-2.86-3.38.34-.17L123,33l-.35.17"/><path class="cls-14" d="M123,33l-2.87-3.38a4.25,4.25,0,0,1,.49-.21l2.86,3.38A4.1,4.1,0,0,0,123,33"/><path class="cls-15" d="M123.48,32.83l-2.86-3.38c.25-.1.51-.18.75-.25l2.87,3.38c-.25.07-.5.15-.76.25"/><path class="cls-16" d="M124.24,32.58l-2.87-3.38a8.74,8.74,0,0,1,1.18-.25l2.87,3.38a8.74,8.74,0,0,0-1.18.25"/><path class="cls-17" d="M125.42,32.33,122.55,29l.3,0a1.12,1.12,0,0,1,.26,0L126,32.3h-.26l-.3,0"/><path class="cls-16" d="M126,32.3l-2.87-3.38.14,0,2.86,3.38-.13,0"/><path class="cls-15" d="M126.11,32.32l-2.86-3.38,0,0,2.87,3.38-.06,0"/><path class="cls-14" d="M126.17,32.34,123.3,29h0l2.87,3.38h0"/><path class="cls-13" d="M126.21,32.35,123.34,29h0l2.86,3.38h0"/><path class="cls-12" d="M126.23,32.36,123.37,29h0l2.86,3.38h0"/><path class="cls-11" d="M126.25,32.37,123.39,29l0,0,2.86,3.38,0,0"/><path class="cls-4" d="M126.27,32.39,123.41,29h0l2.87,3.38h0"/><path class="cls-10" d="M126.29,32.4,123.42,29h0l2.86,3.38h0"/><path class="cls-9" d="M126.3,32.41,123.44,29h0l2.87,3.38h0"/><path class="cls-8" d="M126.32,32.42,123.45,29h0l2.86,3.38h0"/><path class="cls-7" d="M126.33,32.43l-2.86-3.38v0l2.86,3.38v0"/><polyline class="cls-6" points="126.34 32.45 123.48 29.07 123.48 29.07 126.34 32.45 126.34 32.45"/></g></g></g><g class="cls-2"><g class="cls-44"><g class="cls-2"><path class="cls-24" d="M104.07,60.31l-2.87-3.38-.09-.11L104,60.2l.09.11"/><path class="cls-25" d="M104,60.2l-2.87-3.38a13.76,13.76,0,0,1-2.79-7.42c-.06-.63-.1-1.29-.11-2s0-1.42.05-2.11a24.42,24.42,0,0,1,.58-3.94l2.86,3.38a24.43,24.43,0,0,0-.57,3.94c0,.69-.06,1.39,0,2.11s0,1.35.11,2A13.61,13.61,0,0,0,104,60.2"/><path class="cls-24" d="M101.7,44.75l-2.86-3.38a20.6,20.6,0,0,1,.57-2l2.87,3.38c-.22.65-.41,1.32-.58,2"/><path class="cls-23" d="M102.28,42.73l-2.87-3.38c.17-.51.36-1,.56-1.48l2.87,3.38c-.2.48-.39,1-.56,1.48"/><path class="cls-21" d="M102.84,41.25,100,37.87q.25-.59.54-1.14l2.86,3.38c-.18.37-.36.75-.53,1.14"/><path class="cls-20" d="M103.37,40.11l-2.86-3.38c.16-.33.34-.64.52-.95l2.86,3.38c-.18.31-.35.62-.52,1"/><path class="cls-19" d="M103.89,39.16,101,35.78c.16-.28.33-.55.5-.81l2.87,3.38c-.18.26-.34.53-.51.81"/><path class="cls-18" d="M104.4,38.35,101.53,35c.16-.24.33-.48.5-.71l2.86,3.38c-.17.23-.33.47-.49.71"/><path class="cls-6" d="M104.89,37.64,102,34.26c.16-.21.32-.42.49-.62L105.39,37c-.17.2-.33.41-.5.62"/><path class="cls-7" d="M105.39,37l-2.87-3.38c.16-.2.33-.39.5-.57l2.86,3.38c-.17.18-.33.37-.49.57"/><path class="cls-8" d="M105.88,36.45,103,33.07c.16-.17.32-.34.49-.5L106.37,36l-.49.5"/><path class="cls-9" d="M106.37,36l-2.86-3.38c.16-.16.32-.32.49-.47l2.87,3.38-.5.47"/><path class="cls-10" d="M106.87,35.48,104,32.1l.5-.42,2.87,3.38-.5.42"/><path class="cls-4" d="M107.37,35.06l-2.87-3.38.52-.39,2.86,3.38-.51.39"/><path class="cls-11" d="M107.88,34.67,105,31.29l.53-.36,2.87,3.38-.54.36"/><path class="cls-12" d="M108.42,34.31l-2.87-3.38.56-.33L109,34l-.56.33"/><path class="cls-13" d="M109,34l-2.87-3.38.61-.31,2.87,3.38L109,34"/><path class="cls-14" d="M109.59,33.67l-2.87-3.38a6.07,6.07,0,0,1,.7-.29l2.86,3.38a6.76,6.76,0,0,0-.69.29"/><path class="cls-15" d="M110.28,33.38,107.42,30a8.27,8.27,0,0,1,.84-.28l2.87,3.38a8.45,8.45,0,0,0-.85.28"/><path class="cls-16" d="M111.13,33.1l-2.87-3.38a9.68,9.68,0,0,1,1.3-.27l2.87,3.38a9.37,9.37,0,0,0-1.3.27"/><path class="cls-17" d="M112.43,32.83l-2.87-3.38a7.93,7.93,0,0,1,.84-.07c.24,0,.47,0,.69,0L114,32.77c-.23,0-.46,0-.69,0a7.93,7.93,0,0,0-.84.07"/><path class="cls-16" d="M114,32.77l-2.87-3.38a8.08,8.08,0,0,1,.88.14l2.87,3.38a8.49,8.49,0,0,0-.88-.14"/><path class="cls-15" d="M114.84,32.91,112,29.53l.57.16,2.86,3.38-.56-.16"/><path class="cls-14" d="M115.4,33.07l-2.86-3.38.47.18,2.86,3.38-.47-.18"/><path class="cls-13" d="M115.87,33.25,113,29.87l.43.2,2.86,3.38-.43-.2"/><path class="cls-12" d="M116.3,33.45l-2.86-3.38.4.22,2.87,3.38-.41-.22"/><path class="cls-11" d="M116.71,33.67l-2.87-3.38.4.25,2.86,3.38-.39-.25"/><path class="cls-4" d="M117.1,33.92l-2.86-3.38.38.27,2.87,3.38-.39-.27"/><path class="cls-10" d="M117.49,34.19l-2.87-3.38.39.31,2.86,3.38c-.12-.11-.25-.21-.38-.31"/><path class="cls-9" d="M117.87,34.5,115,31.12c.13.11.26.22.38.34l2.87,3.38-.39-.34"/><path class="cls-8" d="M118.26,34.84l-2.87-3.38c.14.13.27.25.39.38l2.86,3.38-.38-.38"/><path class="cls-7" d="M118.64,35.22l-2.86-3.38.38.42L119,35.64q-.18-.21-.39-.42"/><path class="cls-6" d="M119,35.64l-2.87-3.38.07.09,2.87,3.38-.07-.09"/></g></g></g><g class="cls-2"><g class="cls-45"><g class="cls-2"><path class="cls-17" d="M92.48,59.87l-2.86-3.38h.56l2.87,3.38h-.57"/><path class="cls-16" d="M93.05,59.87l-2.87-3.38.28-.06,2.86,3.38a1.47,1.47,0,0,1-.27.06"/><path class="cls-15" d="M93.32,59.81l-2.86-3.38.18-.06,2.86,3.38-.18.06"/><path class="cls-14" d="M93.5,59.75l-2.86-3.38.16-.07,2.87,3.38-.17.07"/><path class="cls-13" d="M93.67,59.68,90.8,56.3l.17-.09,2.87,3.38-.17.09"/><path class="cls-12" d="M93.84,59.59,91,56.21l.17-.1L94,59.49l-.17.1"/><path class="cls-11" d="M94,59.49l-2.87-3.38.19-.12,2.87,3.38-.19.12"/><path class="cls-4" d="M94.2,59.37,91.33,56l.21-.16,2.86,3.38-.2.16"/><path class="cls-10" d="M94.4,59.21l-2.86-3.38.23-.2L94.64,59l-.24.2"/><path class="cls-9" d="M94.64,59l-2.87-3.38a3.32,3.32,0,0,0,.28-.26l2.87,3.38-.28.26"/><path class="cls-8" d="M94.92,58.75l-2.87-3.38.34-.35,2.86,3.38c-.11.13-.23.24-.33.35"/><path class="cls-7" d="M95.25,58.4,92.39,55l.42-.48,2.86,3.38c-.14.17-.28.34-.42.48"/><path class="cls-6" d="M95.67,57.92l-2.86-3.38c.18-.22.36-.45.56-.72l2.86,3.38c-.19.27-.38.5-.56.72"/><path class="cls-18" d="M96.23,57.2l-2.86-3.38c.25-.33.51-.7.79-1.12L97,56.08c-.27.42-.54.79-.79,1.12"/><path class="cls-19" d="M97,56.08,94.16,52.7c.38-.58.79-1.24,1.24-2l2.86,3.38c-.44.75-.85,1.41-1.24,2"/><path class="cls-20" d="M98.26,54.09,95.4,50.71c.66-1.13,1.39-2.47,2.2-4.06L100.46,50c-.81,1.59-1.54,2.93-2.2,4.06"/><path class="cls-21" d="M100.46,50,97.6,46.65l.66-1.34,2.87,3.38c-.23.46-.45.91-.67,1.34"/></g></g></g><path class="cls-32" d="M134.62,45.92c-.07.85-.1,1.71-.09,2.56,0,.64,0,1.26.09,1.85-3.82,7.85-6.55,12.46-9.55,12.57-3.3.12-4.48-3.71-4.88-8.37-2.38,4.83-5.69,8.76-9.14,8.89-4.64.17-9.1-3.19-9.86-10.64-.07-.63-.1-1.29-.11-2s0-1.42,0-2.11c.6-9.23,6-15.7,12.14-15.93,4-.15,6.88,3.85,7.54,5.84l.41-3.64c.19-1.91,3.71-2.63,4.5-2.66.59,0,.75.11.76.71,0,1.53-1.86,9.25-1.69,20.64,0,2.84.52,5,1.75,5,1.47-.05,3.41-2.85,7.09-10.57ZM113,59.13c3.37-.12,7.67-5.92,7.54-15.18-.07-4.58-3.13-9.07-6.65-8.94-4.32.16-7.62,5.4-7.51,12.9s2.75,11.37,6.62,11.22"/><polygon class="cls-3" points="80.51 49.65 77.65 46.27 78.01 45.48 80.88 48.86 80.51 49.65"/><g class="cls-2"><g class="cls-46"><g class="cls-2"><polyline class="cls-6" points="70.34 60.29 67.47 56.91 67.48 56.92 70.34 60.3 70.34 60.29"/><path class="cls-7" d="M70.34,60.3l-2.86-3.38,0,.06,2.87,3.38-.06-.06"/><path class="cls-8" d="M70.4,60.36,67.53,57l0,.05,2.87,3.38,0,0"/><path class="cls-9" d="M70.45,60.41,67.58,57l0,0,2.87,3.38,0,0"/><path class="cls-10" d="M70.5,60.45l-2.87-3.38.05,0,2.87,3.38,0,0"/><path class="cls-4" d="M70.55,60.49l-2.87-3.38,0,0,2.87,3.38,0,0"/><path class="cls-11" d="M70.6,60.52l-2.87-3.38,0,0,2.87,3.38a.1.1,0,0,1-.05,0"/><path class="cls-12" d="M70.65,60.56l-2.87-3.38.06,0,2.86,3.38,0,0"/><path class="cls-13" d="M70.7,60.59l-2.86-3.38.06,0,2.86,3.38-.06,0"/><path class="cls-14" d="M70.76,60.61,67.9,57.23l.06,0,2.86,3.38-.06,0"/><path class="cls-15" d="M70.82,60.64,68,57.26l.09,0,2.86,3.38-.09,0"/><path class="cls-16" d="M70.91,60.66l-2.86-3.38.16,0,2.87,3.38-.17,0"/><path class="cls-17" d="M71.08,60.68,68.21,57.3h.15l2.87,3.38h-.15"/><path class="cls-16" d="M71.23,60.68,68.36,57.3l.22,0,2.87,3.38-.22,0"/><path class="cls-15" d="M71.45,60.64l-2.87-3.38.14,0,2.87,3.38-.14,0"/><path class="cls-14" d="M71.59,60.59l-2.87-3.38.12-.05,2.87,3.38-.12.05"/><path class="cls-13" d="M71.71,60.54l-2.87-3.38L69,57.1l2.87,3.38-.12.06"/><path class="cls-12" d="M71.83,60.48,69,57.1l.13-.08L72,60.4l-.12.08"/><path class="cls-11" d="M72,60.4,69.09,57l.13-.08,2.86,3.38a.57.57,0,0,1-.13.08"/><path class="cls-4" d="M72.08,60.32l-2.86-3.38.14-.11,2.87,3.38-.15.11"/><path class="cls-10" d="M72.23,60.21l-2.87-3.38.16-.13,2.86,3.38-.15.13"/><path class="cls-9" d="M72.38,60.08,69.52,56.7l.18-.18,2.87,3.38-.19.18"/><path class="cls-8" d="M72.57,59.9,69.7,56.52l.23-.23,2.86,3.38-.22.23"/><path class="cls-7" d="M72.79,59.67l-2.86-3.38c.09-.1.18-.2.27-.32l2.87,3.38-.28.32"/><path class="cls-6" d="M73.07,59.35,70.2,56c.12-.14.24-.3.37-.47l2.87,3.38c-.13.17-.25.33-.37.47"/><path class="cls-18" d="M73.44,58.88,70.57,55.5c.17-.22.34-.47.53-.75L74,58.13c-.18.28-.36.53-.52.75"/><path class="cls-19" d="M74,58.13,71.1,54.75c.27-.41.55-.87.86-1.39l2.87,3.38c-.31.52-.6,1-.87,1.39"/><path class="cls-20" d="M74.83,56.74,72,53.36c.55-.94,1.16-2.06,1.83-3.39l2.87,3.38c-.68,1.33-1.29,2.45-1.83,3.39"/><path class="cls-21" d="M76.66,53.35,73.79,50q.73-1.45,1.59-3.24l2.86,3.38c-.56,1.19-1.09,2.27-1.58,3.24"/></g></g></g><polygon class="cls-37" points="78.24 50.11 75.38 46.73 76.1 45.18 78.96 48.56 78.24 50.11"/><polygon class="cls-4" points="78.96 48.56 76.1 45.18 77.65 46.27 80.51 49.65 78.96 48.56"/><polygon class="cls-47" points="78.96 48.56 76.1 45.18 76.46 44.37 79.33 47.75 78.96 48.56"/><g class="cls-2"><g class="cls-48"><g class="cls-2"><path class="cls-24" d="M87.15,62.69l-2.87-3.38,0,0,2.87,3.38,0,0"/><path class="cls-25" d="M87.11,62.65l-2.87-3.38a8.21,8.21,0,0,1-1.49-5.16,17,17,0,0,1,.51-4.17l2.86,3.38a17.51,17.51,0,0,0-.5,4.17,8.15,8.15,0,0,0,1.49,5.16"/><path class="cls-24" d="M86.12,53.32l-2.86-3.38c.22-.93.49-1.88.81-2.82l2.87,3.38c-.32.94-.6,1.89-.82,2.82"/><path class="cls-23" d="M86.94,50.5l-2.87-3.38c.41-1.18.87-2.37,1.37-3.53L88.3,47c-.49,1.16-1,2.35-1.36,3.53"/><path class="cls-21" d="M88.3,47l-2.86-3.38c1.4-3.28,3-6.4,4.1-8.88l2.87,3.38c-1.06,2.48-2.7,5.6-4.11,8.88"/><path class="cls-23" d="M92.41,38.09l-2.87-3.38c.26-.61.49-1.17.66-1.7l2.87,3.38c-.18.53-.4,1.09-.66,1.7"/><path class="cls-24" d="M93.07,36.39,90.2,33q.18-.52.3-1l2.86,3.38a9.65,9.65,0,0,1-.29,1"/></g></g></g><g class="cls-2"><g class="cls-49"><g class="cls-2"><path class="cls-24" d="M66.9,63.71,64,60.33l-.05,0,2.87,3.38.05.05"/><path class="cls-25" d="M66.85,63.66,64,60.28c-1.22-1.5-1.79-4.12-2-7.07l2.87,3.38c.26,2.95.83,5.57,2,7.07"/></g></g></g><g class="cls-2"><g class="cls-50"><g class="cls-2"><path class="cls-21" d="M79.32,47.75l-2.86-3.38c.17-.36.34-.73.5-1.1l2.87,3.38c-.16.37-.33.74-.51,1.1"/><path class="cls-23" d="M79.83,46.65,77,43.27c.32-.75.61-1.51.86-2.25l2.86,3.38c-.25.74-.53,1.5-.85,2.25"/><path class="cls-24" d="M80.68,44.4,77.82,41c.38-1.14.68-2.2.87-3.05l2.87,3.38c-.2.85-.49,1.91-.88,3"/><path class="cls-25" d="M81.56,41.35,78.69,38A13.39,13.39,0,0,0,79,36.52l2.86,3.38a12.86,12.86,0,0,1-.27,1.45"/></g></g></g><g class="cls-2"><g class="cls-51"><g class="cls-2"><path class="cls-17" d="M84,35.74l-2.87-3.38a6.16,6.16,0,0,0,.72-.06l2.86,3.38a5.83,5.83,0,0,1-.71.06"/><path class="cls-16" d="M84.7,35.68,81.84,32.3a14.2,14.2,0,0,0,2.06-.45l2.86,3.38a13.92,13.92,0,0,1-2.06.45"/><path class="cls-15" d="M86.76,35.23,83.9,31.85c1.32-.38,2.7-.88,4-1.25L90.75,34c-1.29.37-2.66.87-4,1.25"/><path class="cls-16" d="M90.75,34,87.89,30.6a15.41,15.41,0,0,1,1.93-.43l2.87,3.38a16,16,0,0,0-1.94.43"/><path class="cls-17" d="M92.69,33.55l-2.87-3.38.65-.05a3.49,3.49,0,0,1,.46,0l2.86,3.38a2.3,2.3,0,0,0-.46,0l-.64,0"/><path class="cls-16" d="M93.79,33.51l-2.86-3.38a2,2,0,0,1,.37.06l2.87,3.38a2.16,2.16,0,0,0-.38-.06"/><path class="cls-15" d="M94.17,33.57,91.3,30.19l.18,0,2.87,3.38-.18,0"/><path class="cls-14" d="M94.35,33.62l-2.87-3.38.12,0,2.87,3.38-.12,0"/><path class="cls-13" d="M94.47,33.66,91.6,30.28l.1,0,2.86,3.38-.09,0"/><path class="cls-12" d="M94.56,33.7,91.7,30.32l.07.05,2.87,3.38-.08,0"/><path class="cls-11" d="M94.64,33.75l-2.87-3.38.07,0,2.86,3.38-.06,0"/><path class="cls-4" d="M94.7,33.79l-2.86-3.38.06,0,2.86,3.38-.06,0"/><path class="cls-10" d="M94.76,33.83,91.9,30.45l0,0,2.86,3.38,0,0"/><path class="cls-9" d="M94.81,33.87,92,30.49l0,0,2.86,3.38,0,0"/><path class="cls-8" d="M94.86,33.91,92,30.53l0,0L94.91,34l0-.05"/><path class="cls-7" d="M94.91,34,92,30.58s0,0,0,0L95,34l0,0"/><polyline class="cls-6" points="94.95 34 92.08 30.62 92.09 30.63 94.95 34.01 94.95 34"/></g></g></g><g class="cls-2"><g class="cls-52"><g class="cls-2"><path class="cls-6" d="M27.3,82.91l-2.86-3.38h0l2.87,3.38h0"/><path class="cls-7" d="M27.32,82.92l-2.87-3.38.1.11L27.41,83l-.09-.11"/><path class="cls-8" d="M27.41,83l-2.86-3.38.09.09,2.87,3.38-.1-.09"/><path class="cls-9" d="M27.51,83.12l-2.87-3.38.09.08L27.6,83.2l-.09-.08"/><path class="cls-10" d="M27.6,83.2l-2.87-3.38.1.08,2.86,3.37-.09-.07"/><path class="cls-4" d="M27.69,83.27,24.83,79.9l.1.06,2.86,3.38-.1-.07"/><path class="cls-11" d="M27.79,83.34,24.93,80,25,80l2.86,3.38-.1-.07"/><path class="cls-12" d="M27.89,83.41,25,80l.11.06L28,83.47l-.11-.06"/><path class="cls-13" d="M28,83.47l-2.86-3.38.12,0,2.86,3.38-.12,0"/><path class="cls-14" d="M28.12,83.52l-2.86-3.38.14.06,2.87,3.38-.15-.06"/><path class="cls-15" d="M28.27,83.58,25.4,80.2l.18,0,2.87,3.38-.18,0"/><path class="cls-16" d="M28.45,83.63l-2.87-3.38a1.54,1.54,0,0,0,.3,0l2.87,3.38a1.54,1.54,0,0,1-.3,0"/><path class="cls-17" d="M28.75,83.67l-2.87-3.38h.26L29,83.68h-.26"/></g></g></g><g class="cls-2"><g class="cls-53"><g class="cls-2"><path class="cls-6" d="M53.53,59.33,50.67,56l0,0,2.87,3.38,0-.05"/><path class="cls-7" d="M53.57,59.38,50.7,56l.23.24,2.86,3.38-.22-.24"/><path class="cls-8" d="M53.79,59.62l-2.86-3.38.22.23L54,59.85c-.08-.07-.15-.15-.23-.23"/><path class="cls-9" d="M54,59.85l-2.87-3.38.23.19L54.24,60,54,59.85"/><path class="cls-10" d="M54.24,60l-2.86-3.38a1.74,1.74,0,0,0,.22.18l2.87,3.38a1.81,1.81,0,0,1-.23-.18"/><path class="cls-4" d="M54.47,60.22,51.6,56.84l.24.17,2.86,3.38-.23-.17"/><path class="cls-11" d="M54.7,60.39,51.84,57l.24.15,2.86,3.38-.24-.15"/><path class="cls-12" d="M54.94,60.54l-2.86-3.38.26.14,2.87,3.38-.27-.14"/><path class="cls-13" d="M55.21,60.68,52.34,57.3l.29.14,2.86,3.37-.28-.13"/><path class="cls-14" d="M55.49,60.81l-2.86-3.37.33.12,2.87,3.38-.34-.13"/><path class="cls-15" d="M55.83,60.94,53,57.56a3.45,3.45,0,0,0,.43.12l2.87,3.38a3,3,0,0,1-.43-.12"/><path class="cls-16" d="M56.26,61.06l-2.87-3.38a4.2,4.2,0,0,0,.71.11L57,61.17a4.08,4.08,0,0,1-.7-.11"/><path class="cls-17" d="M57,61.17,54.1,57.79c.2,0,.41,0,.62,0l2.87,3.38c-.21,0-.42,0-.63,0"/></g></g></g><g class="cls-2"><g class="cls-54"><g class="cls-2"><polyline class="cls-6" points="80.12 35.15 77.26 31.77 77.27 31.78 80.13 35.16 80.12 35.15"/><path class="cls-7" d="M80.13,35.16l-2.86-3.38.06.06,2.86,3.38-.06-.06"/><path class="cls-8" d="M80.19,35.22l-2.86-3.38.06.07,2.87,3.38a.23.23,0,0,1-.07-.07"/><path class="cls-9" d="M80.26,35.29l-2.87-3.38.07.06,2.87,3.38-.07-.06"/><path class="cls-10" d="M80.33,35.35,77.46,32l.08.06,2.87,3.38-.08-.06"/><path class="cls-4" d="M80.41,35.41,77.54,32l.1.07,2.86,3.38-.09-.07"/><path class="cls-11" d="M80.5,35.48,77.64,32.1l.1.07,2.87,3.38-.11-.07"/><path class="cls-12" d="M80.61,35.55l-2.87-3.38.13.07,2.87,3.38-.13-.07"/><path class="cls-13" d="M80.74,35.62l-2.87-3.38.16.07,2.86,3.38-.15-.07"/><path class="cls-14" d="M80.89,35.69,78,32.31l.19.07,2.87,3.38-.2-.07"/><path class="cls-15" d="M81.09,35.76l-2.87-3.38.25.08,2.87,3.38-.25-.08"/><path class="cls-16" d="M81.34,35.84l-2.87-3.38a2.52,2.52,0,0,0,.37,0l2.86,3.38a2.58,2.58,0,0,1-.36,0"/><path class="cls-17" d="M81.7,35.89l-2.86-3.38h.22l2.87,3.38H81.7"/></g></g></g><g class="cls-2"><g class="cls-55"><g class="cls-2"><path class="cls-25" d="M81.93,35.9l-2.87-3.38a3.32,3.32,0,0,0-.55-2l2.86,3.38a3.32,3.32,0,0,1,.56,2"/><path class="cls-24" d="M81.37,33.91l-2.86-3.38,0,0,2.87,3.38v0"/></g></g></g><g class="cls-2"><g class="cls-56"><g class="cls-2"><path class="cls-24" d="M77.91,38.06l-2.86-3.38,0,0L77.88,38l0,.05"/><path class="cls-25" d="M77.88,38,75,34.63a4.5,4.5,0,0,1-1-2.86,3.8,3.8,0,0,1,.1-1L77,34.18a4.31,4.31,0,0,0-.1,1,4.51,4.51,0,0,0,1,2.86"/><path class="cls-24" d="M77,34.18,74.09,30.8c0-.11.06-.22.09-.33l2.87,3.38c0,.11-.07.22-.1.33"/><path class="cls-23" d="M77.05,33.85l-2.87-3.38a2,2,0,0,1,.1-.26l2.86,3.38-.09.26"/><path class="cls-21" d="M77.14,33.59l-2.86-3.38a2,2,0,0,1,.1-.21l2.86,3.38-.1.21"/><path class="cls-20" d="M77.24,33.38,74.38,30a1.62,1.62,0,0,1,.1-.18l2.86,3.38-.1.18"/><path class="cls-19" d="M77.34,33.2l-2.86-3.38.1-.17L77.44,33l-.1.17"/><path class="cls-18" d="M77.44,33l-2.86-3.38.11-.15,2.86,3.38-.11.15"/><path class="cls-6" d="M77.55,32.88,74.69,29.5a1.34,1.34,0,0,1,.11-.14l2.86,3.38a1.34,1.34,0,0,1-.11.14"/><path class="cls-7" d="M77.66,32.74,74.8,29.36l.12-.13,2.86,3.38-.12.13"/><path class="cls-8" d="M77.78,32.61l-2.86-3.38L75,29.1l2.86,3.38-.12.13"/><path class="cls-9" d="M77.9,32.48,75,29.1l.13-.12L78,32.35l-.14.13"/><path class="cls-10" d="M78,32.35,75.17,29a.75.75,0,0,1,.14-.12l2.87,3.38-.14.11"/><path class="cls-4" d="M78.18,32.24l-2.87-3.38.15-.12,2.87,3.38-.15.12"/><path class="cls-11" d="M78.33,32.12l-2.87-3.38.17-.11L78.5,32l-.17.11"/><path class="cls-12" d="M78.5,32l-2.87-3.38.19-.11,2.87,3.38a1.18,1.18,0,0,0-.19.11"/><path class="cls-13" d="M78.69,31.9l-2.87-3.38.21-.11,2.87,3.38-.21.11"/><path class="cls-14" d="M78.9,31.79,76,28.41l.25-.11,2.87,3.38-.25.11"/><path class="cls-15" d="M79.15,31.68,76.28,28.3l.32-.1,2.87,3.38-.32.1"/><path class="cls-16" d="M79.47,31.58,76.6,28.2a3.33,3.33,0,0,1,.53-.11L80,31.47a3.12,3.12,0,0,0-.53.11"/><path class="cls-17" d="M80,31.47l-2.87-3.38a1.84,1.84,0,0,1,.33,0h.45l2.86,3.38h-.44a1.84,1.84,0,0,0-.33,0"/><path class="cls-16" d="M80.77,31.45l-2.86-3.38a2.74,2.74,0,0,1,.5.08l2.87,3.38a2.72,2.72,0,0,0-.51-.08"/><path class="cls-15" d="M81.28,31.53l-2.87-3.38.28.08,2.87,3.38-.28-.08"/><path class="cls-14" d="M81.56,31.61l-2.87-3.38.22.08,2.86,3.38-.21-.08"/><path class="cls-13" d="M81.77,31.69l-2.86-3.38.18.08L82,31.77l-.19-.08"/><path class="cls-12" d="M82,31.77l-2.87-3.38.16.09,2.87,3.38L82,31.77"/><path class="cls-11" d="M82.12,31.86l-2.87-3.38.15.09L82.27,32l-.15-.09"/><path class="cls-4" d="M82.27,32,79.4,28.57l.14.1,2.86,3.38-.13-.1"/><path class="cls-10" d="M82.4,32.05l-2.86-3.38.13.11,2.87,3.38-.14-.11"/><path class="cls-9" d="M82.54,32.16l-2.87-3.38.13.11,2.86,3.38-.12-.11"/><path class="cls-8" d="M82.66,32.27,79.8,28.89l.12.12,2.87,3.38-.13-.12"/><path class="cls-7" d="M82.79,32.39,79.92,29l.12.13,2.87,3.38-.12-.13"/><path class="cls-6" d="M82.91,32.52,80,29.14l0,0,2.86,3.38,0,0"/></g></g></g><path class="cls-32" d="M101.08,50.8c0,.69,0,1.35.11,2-4.6,8.86-7.39,11.28-10.49,11.4-2.92.1-5-2-5.08-6.69C85.51,49.84,92.26,40,93.36,35.4l-.22-.22c-1.62.06-5.5,4.24-9.39,4.79a36.74,36.74,0,0,1-2.87,8.88l-.37.8L79,48.56l.36-.81a30.21,30.21,0,0,0,2.51-7.85c-2.62-.17-4.94-1.91-5-4.75a3.58,3.58,0,0,1,3.48-3.71c2.43-.09,3.62,2,3.66,4.3,2.85-.1,6.64-2.14,9.34-2.24,1.16,0,1.92.37,1.93,1.45,0,2.43-4.54,15.07-4.45,21.57,0,2.69.58,3.41,2.11,3.36,1.28-.05,3.54-1.71,8.21-11.19C101.08,49.38,101.07,50.08,101.08,50.8ZM79.8,34.29c0,1.17,1.41,1.64,2.13,1.61,0-1.38-.53-2.41-1.35-2.38a.8.8,0,0,0-.78.77"/><g class="cls-2"><g class="cls-57"><g class="cls-2"><path class="cls-17" d="M29,83.68,26.14,80.3h.17l2.87,3.38H29"/><path class="cls-16" d="M29.18,83.67l-2.87-3.38a3.11,3.11,0,0,0,.44-.08l2.87,3.38a3.39,3.39,0,0,1-.44.08"/><path class="cls-15" d="M29.62,83.59l-2.87-3.38.25-.08,2.86,3.38-.24.08"/><path class="cls-14" d="M29.86,83.51,27,80.13l.18-.08L30,83.43l-.18.08"/><path class="cls-13" d="M30,83.43l-2.86-3.38.16-.08,2.86,3.38-.16.08"/><path class="cls-12" d="M30.2,83.35,27.34,80l.15-.09,2.87,3.38-.16.09"/><path class="cls-11" d="M30.36,83.26l-2.87-3.38.14-.09,2.87,3.38-.14.09"/><path class="cls-4" d="M30.5,83.17l-2.87-3.38.14-.11,2.87,3.38-.14.11"/><path class="cls-10" d="M30.64,83.06l-2.87-3.38.14-.11L30.77,83l-.13.11"/><path class="cls-9" d="M30.77,83l-2.86-3.38.14-.14,2.87,3.38-.15.14"/><path class="cls-8" d="M30.92,82.81l-2.87-3.38.14-.14,2.87,3.38-.14.14"/><path class="cls-7" d="M31.06,82.67l-2.87-3.38.15-.18,2.87,3.38-.15.18"/><path class="cls-6" d="M31.21,82.49l-2.87-3.38a1.56,1.56,0,0,0,.16-.2l2.87,3.38-.16.2"/><path class="cls-18" d="M31.37,82.29,28.5,78.91l.17-.24,2.87,3.38-.17.24"/><path class="cls-19" d="M31.54,82.05l-2.87-3.38a3.21,3.21,0,0,0,.19-.31l2.87,3.38c-.06.11-.13.21-.19.31"/><path class="cls-20" d="M31.73,81.74l-2.87-3.38c.08-.13.15-.27.22-.41L32,81.33l-.22.41"/><path class="cls-21" d="M32,81.33,29.08,78a5.64,5.64,0,0,0,.26-.55l2.86,3.38a5.65,5.65,0,0,1-.25.55"/><path class="cls-23" d="M32.2,80.78,29.34,77.4q.16-.41.33-.87l2.86,3.38a8.78,8.78,0,0,1-.33.87"/><path class="cls-24" d="M32.53,79.91l-2.86-3.38c.16-.49.32-1,.46-1.64L33,78.27a16.49,16.49,0,0,1-.46,1.64"/><path class="cls-25" d="M33,78.27l-2.86-3.38a61.06,61.06,0,0,0,1-13.89L34,64.38a61.12,61.12,0,0,1-1,13.89"/></g></g></g><polygon class="cls-40" points="65.44 40.65 62.57 37.27 62.96 33.63 65.83 37.01 65.44 40.65"/><g class="cls-2"><g class="cls-58"><g class="cls-2"><path class="cls-17" d="M57.59,61.19l-2.87-3.38.21,0,2.86,3.38-.2,0"/><path class="cls-16" d="M57.79,61.17l-2.86-3.38a2.91,2.91,0,0,0,.56-.11l2.87,3.38a2.87,2.87,0,0,1-.57.11"/><path class="cls-15" d="M58.36,61.06l-2.87-3.38a2.65,2.65,0,0,0,.37-.12l2.86,3.38a2.53,2.53,0,0,1-.36.12"/><path class="cls-14" d="M58.72,60.94l-2.86-3.38.31-.13L59,60.81l-.31.13"/><path class="cls-13" d="M59,60.81l-2.86-3.38.29-.15,2.86,3.38a1.59,1.59,0,0,1-.29.15"/><path class="cls-12" d="M59.32,60.66l-2.86-3.38.28-.17,2.87,3.38-.29.17"/><path class="cls-11" d="M59.61,60.49l-2.87-3.38.29-.19,2.86,3.38-.28.19"/><path class="cls-4" d="M59.89,60.3,57,56.92l.28-.21,2.87,3.38-.29.21"/><path class="cls-10" d="M60.18,60.09l-2.87-3.38.3-.26,2.87,3.38-.3.26"/><path class="cls-9" d="M60.48,59.83l-2.87-3.38.31-.28,2.86,3.38-.3.28"/><path class="cls-8" d="M60.78,59.55l-2.86-3.38.32-.33,2.86,3.38-.32.33"/><path class="cls-7" d="M61.1,59.22l-2.86-3.38c.11-.13.23-.25.34-.39l2.86,3.38c-.11.14-.22.26-.34.39"/><path class="cls-6" d="M61.44,58.83l-2.86-3.38.35-.44,2.86,3.38c-.11.15-.23.3-.35.44"/><path class="cls-18" d="M61.79,58.39,58.93,55c.12-.18.25-.35.37-.54l2.87,3.38-.38.54"/><path class="cls-19" d="M62.17,57.85,59.3,54.47c.14-.21.27-.42.4-.64l2.87,3.38c-.13.22-.27.43-.4.64"/><path class="cls-20" d="M62.57,57.21,59.7,53.83c.15-.26.3-.52.43-.79L63,56.42c-.14.27-.28.53-.43.79"/><path class="cls-21" d="M63,56.42,60.13,53c.16-.32.32-.65.46-1l2.87,3.38c-.15.34-.3.67-.46,1"/><path class="cls-23" d="M63.46,55.43l-2.87-3.38q.27-.63.51-1.32L64,54.11c-.15.46-.32.9-.5,1.32"/><path class="cls-24" d="M64,54.11,61.1,50.73a20,20,0,0,0,.54-1.93l2.87,3.38c-.16.67-.34,1.32-.55,1.93"/><path class="cls-25" d="M64.51,52.18,61.64,48.8a25.07,25.07,0,0,0,.63-6.17,11,11,0,0,0-2.37-6.69l2.86,3.38A11.06,11.06,0,0,1,65.14,46a26.08,26.08,0,0,1-.63,6.17"/><path class="cls-24" d="M62.76,39.32,59.9,35.94l-.08-.09,2.87,3.38.07.09"/></g></g></g><g class="cls-2"><g class="cls-59"><g class="cls-2"><path class="cls-25" d="M65.83,37,63,33.63l0-.17,2.87,3.38a.47.47,0,0,0,0,.17"/><path class="cls-24" d="M65.86,36.84,63,33.46a.84.84,0,0,1,0-.17l2.86,3.38a.85.85,0,0,0,0,.17"/><path class="cls-23" d="M65.9,36.67,63,33.29s0-.08,0-.12L66,36.55l0,.12"/><path class="cls-21" d="M66,36.55l-2.87-3.38.05-.11L66,36.44a.37.37,0,0,0,0,.11"/><path class="cls-20" d="M66,36.44l-2.87-3.38.06-.1,2.86,3.38,0,.1"/><path class="cls-19" d="M66.05,36.34,63.19,33l.06-.09,2.86,3.38-.06.09"/><path class="cls-18" d="M66.11,36.25l-2.86-3.38.06-.1,2.87,3.38a.86.86,0,0,0-.07.1"/><path class="cls-6" d="M66.18,36.15l-2.87-3.38.08-.09,2.86,3.38-.07.09"/><path class="cls-7" d="M66.25,36.06l-2.86-3.38.08-.1L66.33,36a.39.39,0,0,1-.08.1"/><path class="cls-8" d="M66.33,36l-2.86-3.38.09-.09,2.87,3.38-.1.09"/><path class="cls-9" d="M66.43,35.87l-2.87-3.38.11-.1,2.87,3.38a.52.52,0,0,0-.11.1"/><path class="cls-10" d="M66.54,35.77l-2.87-3.38.13-.11,2.87,3.38a.69.69,0,0,0-.13.11"/><path class="cls-4" d="M66.67,35.66,63.8,32.28l.16-.12,2.87,3.38a1,1,0,0,0-.16.12"/><path class="cls-11" d="M66.83,35.54,64,32.16l.19-.13L67,35.41l-.19.13"/><path class="cls-12" d="M67,35.41,64.15,32l.25-.15,2.87,3.38-.25.15"/><path class="cls-13" d="M67.27,35.26,64.4,31.88l.34-.17,2.87,3.38a3.59,3.59,0,0,0-.34.17"/><path class="cls-14" d="M67.61,35.09l-2.87-3.38c.16-.08.32-.14.49-.21l2.86,3.38c-.16.07-.32.13-.48.21"/><path class="cls-15" d="M68.09,34.88,65.23,31.5c.25-.09.51-.18.76-.25l2.86,3.38c-.24.07-.5.15-.76.25"/><path class="cls-16" d="M68.85,34.63,66,31.25A9,9,0,0,1,67.16,31L70,34.38a8.74,8.74,0,0,0-1.18.25"/><path class="cls-17" d="M70,34.38,67.16,31l.3,0h.26l2.87,3.38h-.26l-.3,0"/><path class="cls-16" d="M70.59,34.35,67.72,31l.14,0,2.87,3.38-.14,0"/><path class="cls-15" d="M70.73,34.37,67.86,31l.06,0,2.86,3.38,0,0"/><path class="cls-14" d="M70.78,34.39,67.92,31h0l2.87,3.38h0"/><path class="cls-13" d="M70.82,34.4,68,31l0,0,2.86,3.38,0,0"/><path class="cls-12" d="M70.84,34.42,68,31h0l2.87,3.38h0"/><path class="cls-11" d="M70.87,34.43,68,31.05h0l2.86,3.38h0"/><path class="cls-4" d="M70.88,34.44,68,31.06h0l2.86,3.38h0"/><path class="cls-10" d="M70.9,34.45,68,31.07h0l2.87,3.38h0"/><path class="cls-9" d="M70.92,34.46l-2.87-3.38v0l2.87,3.37h0"/><path class="cls-8" d="M70.93,34.47,68.06,31.1h0l2.86,3.38v0"/><path class="cls-7" d="M70.94,34.49l-2.86-3.38h0L71,34.5h0"/><polyline class="cls-6" points="70.95 34.5 68.09 31.12 68.09 31.12 70.96 34.5 70.95 34.5"/></g></g></g><g class="cls-2"><g class="cls-60"><g class="cls-2"><path class="cls-24" d="M24.45,83.58,21.59,80.2l-.06-.07,2.87,3.38.05.07"/><path class="cls-25" d="M24.4,83.51l-2.87-3.38A7.28,7.28,0,0,1,20,75.57a14,14,0,0,1,.36-3.41l2.86,3.38A14.5,14.5,0,0,0,22.82,79a7.29,7.29,0,0,0,1.58,4.56"/><path class="cls-24" d="M23.18,75.54l-2.86-3.38a11.92,11.92,0,0,1,.38-1.33l2.86,3.38c-.15.43-.27.88-.38,1.33"/><path class="cls-23" d="M23.56,74.21,20.7,70.83c.12-.37.26-.73.41-1.08L24,73.13c-.15.35-.29.71-.41,1.08"/><path class="cls-21" d="M24,73.13l-2.86-3.38q.21-.5.45-1l2.86,3.38q-.24.47-.45,1"/><path class="cls-20" d="M24.42,72.17l-2.86-3.38c.16-.32.32-.62.5-.93l2.87,3.38c-.18.31-.35.61-.51.93"/><path class="cls-19" d="M24.93,71.24l-2.87-3.38c.18-.31.38-.61.58-.92l2.86,3.38c-.2.31-.39.61-.57.92"/><path class="cls-18" d="M25.5,70.32l-2.86-3.38c.21-.32.44-.64.68-1l2.86,3.38c-.24.32-.46.64-.68,1"/><path class="cls-6" d="M26.18,69.36,23.32,66c.26-.35.53-.69.82-1L27,68.32c-.28.35-.56.69-.82,1"/><path class="cls-7" d="M27,68.32l-2.86-3.38c.32-.39.67-.78,1-1.17L28,67.15c-.36.39-.7.78-1,1.17"/><path class="cls-8" d="M28,67.15l-2.87-3.38c.45-.48.92-1,1.4-1.44l2.87,3.38c-.49.48-1,1-1.4,1.44"/><path class="cls-9" d="M29.43,65.71l-2.87-3.38c.73-.71,1.48-1.4,2.27-2.1l2.86,3.38c-.78.7-1.54,1.39-2.26,2.1"/><path class="cls-10" d="M31.69,63.61l-2.86-3.38c.75-.66,1.53-1.33,2.32-2L34,61.62c-.8.66-1.57,1.33-2.33,2"/></g></g></g><g class="cls-2"><g class="cls-61"><g class="cls-2"><path class="cls-24" d="M48.68,62.37,45.81,59a.39.39,0,0,0-.08-.1l2.87,3.38.08.1"/><path class="cls-25" d="M48.6,62.27l-2.87-3.38a14.1,14.1,0,0,1-2.85-8.12c0-.42-.05-.85-.06-1.3,0-.75,0-1.49.06-2.21a24.21,24.21,0,0,1,.57-3.82l2.86,3.38a24.05,24.05,0,0,0-.56,3.82c0,.72-.07,1.46-.06,2.21,0,.45,0,.88.05,1.3a14,14,0,0,0,2.86,8.12"/><path class="cls-24" d="M46.31,46.82l-2.86-3.38a18.52,18.52,0,0,1,.58-2l2.86,3.38c-.22.66-.41,1.33-.58,2"/><path class="cls-23" d="M46.89,44.78,44,41.4c.17-.5.35-1,.56-1.47l2.86,3.38c-.2.48-.39,1-.56,1.47"/><path class="cls-21" d="M47.45,43.31l-2.86-3.38c.16-.39.34-.78.53-1.15L48,42.16c-.19.37-.37.76-.54,1.15"/><path class="cls-20" d="M48,42.16l-2.87-3.38c.17-.32.34-.64.52-1l2.87,3.38c-.18.31-.36.63-.52.95"/><path class="cls-19" d="M48.51,41.21l-2.87-3.38c.16-.27.33-.54.5-.81L49,40.4c-.17.27-.34.54-.5.81"/><path class="cls-18" d="M49,40.4,46.14,37l.5-.7,2.87,3.38c-.17.23-.34.46-.5.7"/><path class="cls-6" d="M49.51,39.7l-2.87-3.38c.16-.22.33-.43.5-.63L50,39.07c-.17.2-.33.41-.49.63"/><path class="cls-7" d="M50,39.07l-2.86-3.38c.16-.2.32-.38.49-.57l2.86,3.38c-.16.19-.33.37-.49.57"/><path class="cls-8" d="M50.49,38.5l-2.86-3.38c.16-.17.32-.34.49-.5L51,38l-.49.5"/><path class="cls-9" d="M51,38l-2.86-3.38.49-.46,2.87,3.38L51,38"/><path class="cls-10" d="M51.48,37.54l-2.87-3.38.51-.42L52,37.12c-.17.13-.34.27-.5.42"/><path class="cls-4" d="M52,37.12l-2.86-3.38a6.26,6.26,0,0,1,.51-.39l2.86,3.38-.51.39"/><path class="cls-11" d="M52.49,36.73l-2.86-3.38c.18-.13.35-.25.53-.36L53,36.37l-.54.36"/><path class="cls-12" d="M53,36.37,50.16,33l.57-.33L53.59,36a6.32,6.32,0,0,0-.56.33"/><path class="cls-13" d="M53.59,36l-2.86-3.38c.2-.12.4-.22.6-.32l2.87,3.38c-.21.1-.41.2-.61.32"/><path class="cls-14" d="M54.2,35.72l-2.87-3.38.7-.29,2.86,3.38-.69.29"/><path class="cls-15" d="M54.89,35.43,52,32.05c.28-.11.56-.2.84-.28l2.87,3.38a8.45,8.45,0,0,0-.85.28"/><path class="cls-16" d="M55.74,35.15l-2.87-3.38a9.68,9.68,0,0,1,1.3-.27L57,34.88a9.68,9.68,0,0,0-1.3.27"/><path class="cls-17" d="M57,34.88,54.17,31.5c.28,0,.56-.06.84-.07a5.4,5.4,0,0,1,.7,0l2.86,3.38a5.25,5.25,0,0,0-.69,0c-.28,0-.56,0-.84.07"/><path class="cls-16" d="M58.57,34.83l-2.86-3.38a5.2,5.2,0,0,1,.88.14L59.45,35a5,5,0,0,0-.88-.14"/><path class="cls-15" d="M59.45,35l-2.86-3.38a5.15,5.15,0,0,1,.56.16L60,35.13c-.19-.06-.38-.12-.57-.16"/><path class="cls-14" d="M60,35.13l-2.87-3.38a4.68,4.68,0,0,1,.48.18l2.86,3.38a3.8,3.8,0,0,0-.47-.18"/><path class="cls-13" d="M60.49,35.31l-2.86-3.38.42.2,2.87,3.38-.43-.2"/><path class="cls-12" d="M60.92,35.51l-2.87-3.38c.14.07.28.14.41.22l2.87,3.38-.41-.22"/><path class="cls-11" d="M61.33,35.73l-2.87-3.38.39.24L61.72,36l-.39-.24"/><path class="cls-4" d="M61.72,36l-2.87-3.38.39.28,2.86,3.38c-.12-.1-.25-.19-.38-.28"/><path class="cls-10" d="M62.1,36.25l-2.86-3.38.38.3,2.87,3.38-.39-.3"/><path class="cls-9" d="M62.49,36.55l-2.87-3.38c.14.11.26.23.39.34l2.86,3.38-.38-.34"/><path class="cls-8" d="M62.87,36.89,60,33.51l.39.39,2.86,3.38q-.18-.2-.39-.39"/><path class="cls-7" d="M63.26,37.28,60.4,33.9c.13.13.26.28.38.42l2.87,3.38c-.13-.14-.26-.29-.39-.42"/><path class="cls-6" d="M63.65,37.7l-2.87-3.38.07.08,2.87,3.38-.07-.08"/></g></g></g><g class="cls-2"><g class="cls-62"><g class="cls-2"><path class="cls-4" d="M39.33,58.05l-2.86-3.38.25-.2,2.87,3.38-.26.2"/><path class="cls-10" d="M39.59,57.85l-2.87-3.38c.37-.29.72-.58,1.06-.88L40.64,57c-.33.3-.69.59-1,.88"/><path class="cls-9" d="M40.64,57l-2.86-3.38,1-.9,2.87,3.38c-.31.3-.63.6-1,.9"/><path class="cls-8" d="M41.61,56.07l-2.87-3.38c.31-.31.61-.61.89-.92l2.87,3.38c-.29.31-.58.61-.89.92"/><path class="cls-7" d="M42.5,55.15l-2.87-3.38c.29-.31.56-.63.82-.94l2.87,3.38c-.26.31-.54.63-.82.94"/><path class="cls-6" d="M43.32,54.21l-2.87-3.38c.27-.32.53-.65.76-1l2.87,3.38c-.24.31-.49.64-.76,1"/><path class="cls-18" d="M44.08,53.25l-2.87-3.38c.25-.34.48-.67.7-1l2.87,3.38c-.22.32-.45.65-.7,1"/><path class="cls-19" d="M44.78,52.26l-2.87-3.38c.23-.35.44-.69.63-1l2.87,3.38-.63,1"/><path class="cls-20" d="M45.41,51.25l-2.87-3.38c.12-.21.24-.41.34-.61l2.87,3.38-.34.61"/></g></g></g><path class="cls-32" d="M80.87,48.86,79.8,51.22c-4.12,8.55-7,13.62-10.12,13.74-3.3.12-4.47-3.72-4.88-8.37-2.37,4.82-5.69,8.76-9.14,8.88-4.77.18-9.36-3.39-9.92-11.32,0-.42-.05-.85-.05-1.3,0-.75,0-1.49.06-2.21.63-9.17,6-15.6,12.13-15.83,4-.15,6.88,3.85,7.55,5.84l.4-3.64c.19-1.9,3.71-2.63,4.5-2.66.6,0,.75.12.76.72,0,1.53-1.86,9.25-1.69,20.63,0,2.84.52,5,1.76,5,1.46,0,3.41-2.85,7.08-10.57L79,48.56l1.55,1.09ZM57.59,61.19C61,61.06,65.27,55.26,65.14,46c-.07-4.59-3.14-9.08-6.66-8.95-4.31.16-7.62,5.4-7.51,12.91s2.76,11.36,6.62,11.22"/><g class="cls-2"><g class="cls-63"><g class="cls-2"><path class="cls-25" d="M34,61.62l-2.87-3.38c.07-5.5.3-11,.48-13.54l2.87,3.37c-.19,2.52-.41,8-.48,13.55"/></g></g></g><g class="cls-2"><g class="cls-64"><g class="cls-2"><path class="cls-6" d="M12.3,63.11,9.44,59.73l0,0,2.87,3.38,0,0"/><path class="cls-7" d="M12.34,63.14,9.47,59.76l.2.23,2.87,3.38c-.07-.08-.14-.15-.2-.23"/><path class="cls-8" d="M12.54,63.37,9.67,60l.2.19,2.86,3.38-.19-.19"/><path class="cls-9" d="M12.73,63.56,9.87,60.18l.19.17,2.87,3.38-.2-.17"/><path class="cls-10" d="M12.93,63.73l-2.87-3.38.19.15,2.87,3.38a1.39,1.39,0,0,1-.19-.15"/><path class="cls-4" d="M13.12,63.88,10.25,60.5l.2.15L13.32,64l-.2-.15"/><path class="cls-11" d="M13.32,64l-2.87-3.38.21.12,2.86,3.38-.2-.12"/><path class="cls-12" d="M13.52,64.15l-2.86-3.38a1.55,1.55,0,0,0,.22.12l2.86,3.38-.22-.12"/><path class="cls-13" d="M13.74,64.27l-2.86-3.38.24.11L14,64.38l-.24-.11"/><path class="cls-14" d="M14,64.38,11.12,61l.27.11,2.87,3.38L14,64.38"/><path class="cls-15" d="M14.26,64.49l-2.87-3.38.34.09,2.86,3.38c-.11,0-.22-.06-.33-.09"/><path class="cls-16" d="M14.59,64.58,11.73,61.2a2.62,2.62,0,0,0,.56.09l2.86,3.38a2.72,2.72,0,0,1-.56-.09"/><path class="cls-17" d="M15.15,64.67l-2.86-3.38a3,3,0,0,0,.52,0l.34,0L16,64.66l-.33,0a3.13,3.13,0,0,1-.53,0"/><path class="cls-16" d="M16,64.66l-2.86-3.38a5.5,5.5,0,0,0,1.09-.21l2.86,3.38a5.37,5.37,0,0,1-1.09.21"/><path class="cls-15" d="M17.1,64.45l-2.86-3.38c.25-.07.5-.15.76-.25l2.86,3.38a7.49,7.49,0,0,1-.76.25"/><path class="cls-14" d="M17.86,64.2,15,60.82l.69-.3,2.87,3.38-.7.3"/><path class="cls-13" d="M18.56,63.9l-2.87-3.38c.24-.11.48-.24.72-.37l2.87,3.38c-.24.13-.48.26-.72.37"/><path class="cls-12" d="M19.28,63.53l-2.87-3.38c.25-.14.5-.28.75-.44L20,63.09c-.25.16-.5.3-.75.44"/><path class="cls-11" d="M20,63.09l-2.87-3.38q.42-.27.84-.57l2.86,3.38-.83.57"/><path class="cls-4" d="M20.86,62.52,18,59.14c.3-.21.61-.45.91-.69l2.87,3.38c-.31.24-.61.48-.92.69"/><path class="cls-10" d="M21.78,61.83l-2.87-3.38c.34-.27.67-.55,1-.85L22.79,61c-.34.3-.68.58-1,.85"/><path class="cls-9" d="M22.79,61,19.92,57.6c.38-.34.76-.69,1.13-1.06l2.87,3.38c-.38.37-.76.72-1.13,1.06"/><path class="cls-8" d="M23.92,59.92l-2.87-3.38c.42-.41.84-.85,1.26-1.3l2.87,3.38c-.42.45-.84.89-1.26,1.3"/><path class="cls-7" d="M25.18,58.62l-2.87-3.38c.46-.5.92-1,1.38-1.58L26.55,57c-.45.55-.91,1.08-1.37,1.58"/><path class="cls-6" d="M26.55,57l-2.86-3.38c.49-.6,1-1.22,1.46-1.85L28,55.19c-.47.63-1,1.25-1.46,1.85"/><path class="cls-18" d="M28,55.19l-2.86-3.38c.51-.7,1-1.41,1.5-2.13l2.86,3.38q-.72,1.08-1.5,2.13"/><path class="cls-19" d="M29.51,53.06l-2.86-3.38c.5-.76,1-1.53,1.43-2.3L31,50.76c-.45.77-.94,1.54-1.44,2.3"/><path class="cls-20" d="M31,50.76l-2.87-3.38c.46-.78.9-1.57,1.3-2.36l2.86,3.38c-.4.79-.83,1.58-1.29,2.36"/><path class="cls-21" d="M32.24,48.4,29.38,45c.39-.78.76-1.56,1.09-2.33l2.86,3.38c-.33.77-.69,1.55-1.09,2.33"/><path class="cls-23" d="M33.33,46.07l-2.86-3.38c.32-.76.61-1.51.86-2.24l2.86,3.38c-.25.73-.54,1.48-.86,2.24"/><path class="cls-24" d="M34.19,43.83l-2.86-3.38c.25-.76.47-1.5.63-2.21l2.87,3.38c-.17.71-.38,1.45-.64,2.21"/><path class="cls-25" d="M34.83,41.62,32,38.24l0-.09,2.87,3.38,0,.09"/></g></g></g><g class="cls-2"><g class="cls-65"><g class="cls-2"><path class="cls-25" d="M34.85,41.53,32,38.15a110.93,110.93,0,0,1,1.3-12.77l2.86,3.38a114.34,114.34,0,0,0-1.29,12.77"/><path class="cls-24" d="M36.14,28.76l-2.86-3.38a2.93,2.93,0,0,1,.09-.33l2.87,3.38c0,.08-.06.2-.1.33"/><path class="cls-23" d="M36.24,28.43l-2.87-3.38s0-.08,0-.11l2.86,3.38,0,.11"/></g></g></g><g class="cls-2"><g class="cls-66"><g class="cls-2"><path class="cls-21" d="M36.27,28.32l-2.86-3.38,0,0,2.86,3.37,0,0"/><path class="cls-20" d="M36.29,28.28l-2.86-3.37.09-.18,2.87,3.38-.1.17"/><path class="cls-19" d="M36.39,28.11l-2.87-3.38.12-.18,2.86,3.38a1.74,1.74,0,0,0-.11.18"/><path class="cls-18" d="M36.5,27.93l-2.86-3.38a1.43,1.43,0,0,1,.14-.2l2.86,3.38c0,.06-.09.13-.14.2"/><path class="cls-6" d="M36.64,27.73l-2.86-3.38.16-.21,2.87,3.38-.17.21"/><path class="cls-7" d="M36.81,27.52l-2.87-3.38.21-.23L37,27.29a2.2,2.2,0,0,0-.2.23"/><path class="cls-8" d="M37,27.29l-2.86-3.38a2.83,2.83,0,0,1,.24-.25L37.25,27l-.24.25"/><path class="cls-9" d="M37.25,27l-2.86-3.38a3.71,3.71,0,0,1,.29-.27l2.86,3.38a3.58,3.58,0,0,0-.29.27"/><path class="cls-10" d="M37.54,26.77l-2.86-3.38c.11-.1.22-.2.34-.29l2.86,3.38-.34.29"/><path class="cls-4" d="M37.88,26.48,35,23.1l.38-.29,2.87,3.38-.39.29"/><path class="cls-11" d="M38.27,26.19,35.4,22.81c.14-.09.27-.19.41-.27l2.87,3.38c-.14.08-.28.18-.41.27"/><path class="cls-12" d="M38.68,25.92l-2.87-3.38a4.64,4.64,0,0,1,.42-.25l2.87,3.38a4.64,4.64,0,0,0-.42.25"/><path class="cls-13" d="M39.1,25.67l-2.87-3.38.4-.21,2.87,3.38a3.84,3.84,0,0,0-.4.21"/><path class="cls-14" d="M39.5,25.46l-2.87-3.38.37-.15,2.87,3.38a2.87,2.87,0,0,0-.37.15"/><path class="cls-15" d="M39.87,25.31,37,21.93l.33-.12,2.87,3.38a2.19,2.19,0,0,0-.33.12"/><path class="cls-16" d="M40.2,25.19l-2.87-3.38a2.83,2.83,0,0,1,.36-.07l2.87,3.38a2.83,2.83,0,0,0-.36.07"/><path class="cls-17" d="M40.56,25.12l-2.87-3.38h.14a.29.29,0,0,1,.13,0l2.86,3.38h-.26"/><path class="cls-16" d="M40.82,25.11,38,21.73l.13,0L41,25.13l-.13,0"/><path class="cls-15" d="M41,25.13l-2.86-3.38.07,0L41,25.15l-.08,0"/><path class="cls-14" d="M41,25.15l-2.87-3.38.06,0,2.87,3.38-.06,0"/><path class="cls-13" d="M41.09,25.17l-2.87-3.38.05,0,2.86,3.38,0,0"/><path class="cls-12" d="M41.13,25.19l-2.86-3.38,0,0,2.86,3.38,0,0"/><path class="cls-11" d="M41.17,25.22l-2.86-3.38,0,0,2.86,3.38,0,0"/><path class="cls-4" d="M41.21,25.24l-2.86-3.38,0,0,2.87,3.38,0,0"/><path class="cls-10" d="M41.25,25.26l-2.87-3.38,0,0,2.86,3.38,0,0"/><path class="cls-9" d="M41.28,25.29l-2.86-3.38,0,0,2.86,3.38,0,0"/><path class="cls-8" d="M41.31,25.32l-2.86-3.38,0,0,2.87,3.38,0,0"/><path class="cls-7" d="M41.35,25.35,38.48,22l0,0,2.87,3.38,0,0"/><polyline class="cls-6" points="41.38 25.39 38.51 22.01 38.52 22.01 41.38 25.39 41.38 25.39"/></g></g></g><polygon class="cls-67" points="33.13 23.48 30.26 20.1 29.11 18.61 31.98 21.99 33.13 23.48"/><g class="cls-2"><g class="cls-68"><g class="cls-2"><path class="cls-13" d="M32,22l-2.86-3.38.11-.06,2.87,3.38L32,22"/><path class="cls-12" d="M32.1,21.93l-2.87-3.38c.26-.14.52-.3.8-.47l2.86,3.38c-.27.17-.53.33-.79.47"/><path class="cls-11" d="M32.89,21.46,30,18.08l.89-.6,2.86,3.38-.89.6"/><path class="cls-4" d="M33.78,20.86l-2.86-3.38c.31-.23.63-.47.95-.73l2.87,3.38c-.32.26-.64.5-1,.73"/><path class="cls-10" d="M34.74,20.13l-2.87-3.38c.33-.25.65-.52,1-.81l2.87,3.38c-.33.29-.65.56-1,.81"/><path class="cls-9" d="M35.71,19.32l-2.87-3.38c.31-.27.62-.56.92-.86l2.87,3.38c-.3.3-.61.59-.92.86"/><path class="cls-8" d="M36.63,18.46l-2.87-3.38c.29-.28.58-.57.85-.88l2.87,3.38c-.28.31-.56.6-.85.88"/><path class="cls-7" d="M37.48,17.58,34.61,14.2c.26-.28.51-.56.76-.86l2.86,3.38c-.24.3-.49.58-.75.86"/><path class="cls-6" d="M38.23,16.72l-2.86-3.38c.23-.27.45-.55.66-.83l2.86,3.38c-.21.28-.43.56-.66.83"/><path class="cls-18" d="M38.89,15.89,36,12.51c.19-.27.38-.53.56-.81l2.87,3.38c-.18.28-.37.54-.57.81"/><path class="cls-19" d="M39.46,15.08,36.59,11.7c.17-.25.34-.51.49-.77L40,14.31c-.16.26-.32.52-.49.77"/><path class="cls-20" d="M40,14.31l-2.87-3.38c.15-.26.29-.51.42-.76l2.86,3.38-.41.76"/><path class="cls-21" d="M40.36,13.55,37.5,10.17c.13-.26.24-.51.35-.76l2.87,3.38c-.11.25-.23.5-.36.76"/><path class="cls-23" d="M40.72,12.79,37.85,9.41c.11-.27.22-.53.3-.79L41,12c-.09.26-.19.52-.3.79"/><path class="cls-24" d="M41,12,38.15,8.62c.1-.3.19-.6.26-.89l2.86,3.38c-.07.29-.15.59-.25.89"/><path class="cls-25" d="M41.27,11.11,38.41,7.73a7.34,7.34,0,0,0,.2-1.79,4.06,4.06,0,0,0-.8-2.54l2.87,3.38a4.05,4.05,0,0,1,.79,2.54,7.34,7.34,0,0,1-.2,1.79"/><path class="cls-24" d="M40.68,6.78,37.81,3.4l0,0,2.87,3.38,0,0"/></g></g></g><path class="cls-32" d="M39.33,58.05a23.92,23.92,0,0,0,6.42-7.41c0,.72-.07,1.46-.06,2.21,0,.45,0,.88.05,1.3a33.84,33.84,0,0,1-6.15,6.18l.06,4.28c.19,13-4,20.73-10.61,21-3.6.13-6.16-2.84-6.22-6.64-.1-7.28,5.12-12.22,11.2-17.33.07-5.5.29-11,.48-13.55C29.58,58.57,20.36,68.69,13.08,69,7.68,69.16,3,65.15,2.87,55.19,2.55,32.79,23,4,39,3.39c4.16-.16,7,1.95,7,5.83.09,6.19-8.53,12-12.88,14.26L32,22c3.8-2,9.57-7.6,9.49-12.67,0-2.13-1.14-3.7-3.57-3.61C26.5,6.13,9.43,29,9.78,53.4c.1,7.13,2.3,11.42,5.9,11.28,6.68-.24,17-13.74,19.17-23.15.46-7.27,1.06-12.33,1.42-13.21a7.06,7.06,0,0,1,4.42-3.21c.79,0,1,.74,1,1.48,0,2.17-.77,5.94-1.83,10.79C38.94,41.63,39.31,51.86,39.33,58.05ZM29,83.68c3.07-.11,5.18-5.16,5-19.3-4.63,3.83-7.8,8.31-7.7,14.81,0,3.06,1.19,4.55,2.73,4.49"/><g class="cls-2"><g class="cls-69"><g class="cls-2"><path class="cls-24" d="M6,65.93,3.18,62.55l-.09-.1L6,65.83l.08.1"/><path class="cls-25" d="M6,65.83,3.09,62.45C1.26,60.23.08,56.75,0,51.81A44.86,44.86,0,0,1,1.24,41.12L4.11,44.5A44.35,44.35,0,0,0,2.87,55.19C2.94,60.13,4.12,63.61,6,65.83"/><path class="cls-24" d="M4.11,44.5,1.24,41.12c.43-1.82,1-3.65,1.57-5.47L5.67,39c-.61,1.82-1.14,3.65-1.56,5.47"/><path class="cls-23" d="M5.67,39,2.81,35.65q.81-2.41,1.83-4.78L7.5,34.25Q6.5,36.62,5.67,39"/><path class="cls-21" d="M7.5,34.25,4.64,30.87c.61-1.44,1.28-2.87,2-4.27L9.5,30c-.71,1.4-1.38,2.83-2,4.27"/><path class="cls-20" d="M9.5,30,6.63,26.6q1-2,2.12-3.88l2.86,3.38c-.74,1.27-1.45,2.56-2.11,3.88"/><path class="cls-19" d="M11.61,26.1,8.75,22.72c.7-1.19,1.42-2.35,2.17-3.48l2.87,3.38c-.75,1.13-1.48,2.29-2.18,3.48"/><path class="cls-18" d="M13.79,22.62l-2.87-3.38c.71-1.06,1.43-2.09,2.18-3.09L16,19.53c-.74,1-1.47,2-2.17,3.09"/><path class="cls-6" d="M16,19.53,13.1,16.15c.69-.93,1.4-1.83,2.12-2.7l2.87,3.38Q17,18.13,16,19.53"/><path class="cls-7" d="M18.09,16.83l-2.87-3.38c.67-.81,1.35-1.59,2-2.35l2.87,3.38c-.69.76-1.37,1.54-2,2.35"/><path class="cls-8" d="M20.13,14.48,17.26,11.1c.65-.7,1.3-1.37,2-2l2.87,3.38c-.66.65-1.32,1.32-2,2"/><path class="cls-9" d="M22.09,12.46,19.22,9.08c.61-.6,1.23-1.18,1.86-1.73l2.86,3.38c-.62.55-1.24,1.13-1.85,1.73"/><path class="cls-10" d="M23.94,10.73,21.08,7.35c.57-.51,1.15-1,1.72-1.46l2.87,3.38c-.58.47-1.16,1-1.73,1.46"/><path class="cls-4" d="M25.67,9.27,22.8,5.89c.56-.44,1.11-.86,1.67-1.26L27.34,8c-.56.4-1.12.82-1.67,1.26"/><path class="cls-11" d="M27.34,8,24.47,4.63c.53-.38,1.07-.74,1.6-1.08l2.87,3.38c-.54.34-1.07.7-1.6,1.08"/><path class="cls-12" d="M28.94,6.93,26.07,3.55c.52-.32,1-.62,1.54-.91L30.48,6c-.52.29-1,.59-1.54.91"/><path class="cls-13" d="M30.48,6,27.61,2.64c.52-.28,1-.55,1.54-.79L32,5.23c-.52.24-1,.51-1.54.79"/><path class="cls-14" d="M32,5.23,29.15,1.85c.53-.24,1.05-.47,1.57-.67l2.87,3.38c-.53.2-1.05.43-1.57.67"/><path class="cls-15" d="M33.59,4.56,30.72,1.18A18.7,18.7,0,0,1,32.51.59L35.38,4a17.82,17.82,0,0,0-1.79.59"/><path class="cls-16" d="M35.38,4,32.51.59A16.55,16.55,0,0,1,35.2.07l2.87,3.38A16.15,16.15,0,0,0,35.38,4"/><path class="cls-17" d="M38.07,3.45,35.2.07,36.12,0a9.26,9.26,0,0,1,1.3,0l2.87,3.38a9.3,9.3,0,0,0-1.3,0c-.31,0-.61,0-.92.06"/><path class="cls-16" d="M40.29,3.42,37.42,0a8.17,8.17,0,0,1,1.25.19l2.86,3.38a8,8,0,0,0-1.24-.19"/><path class="cls-15" d="M41.53,3.61,38.67.23a6.36,6.36,0,0,1,.66.19L42.19,3.8a6.36,6.36,0,0,0-.66-.19"/><path class="cls-14" d="M42.19,3.8,39.33.42A3.8,3.8,0,0,1,39.8.6L42.67,4a3.94,3.94,0,0,0-.48-.18"/><path class="cls-13" d="M42.67,4,39.8.6l.38.17L43,4.15,42.67,4"/><path class="cls-12" d="M43,4.15,40.18.77,40.5,1l2.86,3.38A3.3,3.3,0,0,0,43,4.15"/><path class="cls-11" d="M43.36,4.33,40.5,1l.28.17L43.64,4.5a2.61,2.61,0,0,0-.28-.17"/><path class="cls-4" d="M43.64,4.5,40.78,1.12l.24.17,2.87,3.38a2.2,2.2,0,0,0-.25-.17"/><path class="cls-10" d="M43.89,4.67,41,1.29l.23.18,2.86,3.38-.22-.18"/><path class="cls-9" d="M44.11,4.85,41.25,1.47l.2.18L44.32,5l-.21-.18"/><path class="cls-8" d="M44.32,5,41.45,1.65l.2.19,2.86,3.38L44.32,5"/><path class="cls-7" d="M44.51,5.22,41.65,1.84l.18.2,2.86,3.38-.18-.2"/><path class="cls-6" d="M44.69,5.42,41.83,2l0,0,2.86,3.38,0,0"/></g></g></g></g></g></g></svg>