<svg xmlns="http://www.w3.org/2000/svg" viewBox="0 0 264.33 50.75"><defs><style>.cls-1{fill:#ffd015;}.cls-2{fill:#fff;}.cls-3{fill:#333;}</style></defs><title>Recurso 2</title><g id="Capa_2" data-name="Capa 2"><g id="Capa_1-2" data-name="Capa 1"><path class="cls-1" d="M38,0H18.09a8.13,8.13,0,0,0-7,4.07L1.09,21.3a8.18,8.18,0,0,0,0,8.15L11,46.68a8.13,8.13,0,0,0,7.05,4.07H38a8.13,8.13,0,0,0,7-4.07L55,29.45a8.18,8.18,0,0,0,0-8.15L45,4.07A8.13,8.13,0,0,0,38,0Z"/><rect class="cls-2" x="11.46" y="22.35" width="11.51" height="17.94"/><rect class="cls-2" x="32.79" y="22.35" width="11.51" height="17.94"/><polygon class="cls-2" points="44.3 17.43 27.88 8.43 11.46 17.43 11.46 22.35 44.3 22.35 44.3 17.43"/><path class="cls-3" d="M68.08,17.93h3.44v6.19h6.35V17.93h3.44V33.57H77.87V27.29H71.52v6.28H68.08Z"/><path class="cls-3" d="M84.15,25.79v0a8.32,8.32,0,0,1,16.63-.05v.05a8.32,8.32,0,0,1-16.63,0Zm13,0v0a4.76,4.76,0,0,0-4.74-4.92,4.68,4.68,0,0,0-4.69,4.87v.05a4.75,4.75,0,0,0,4.73,4.92A4.68,4.68,0,0,0,97.18,25.79Z"/><path class="cls-3" d="M102.92,25.79v0a8,8,0,0,1,8.2-8.09,8.61,8.61,0,0,1,6.15,2.14l-2.17,2.62A5.75,5.75,0,0,0,111,20.83a4.7,4.7,0,0,0-4.49,4.87v.05a4.68,4.68,0,0,0,4.73,5,5.49,5.49,0,0,0,3.25-.94V27.54H111v-3h6.8v6.8a10.2,10.2,0,0,1-6.69,2.48A7.83,7.83,0,0,1,102.92,25.79Z"/><path class="cls-3" d="M126.27,17.81h3.18l6.7,15.76h-3.6l-1.43-3.51h-6.61l-1.44,3.51h-3.5ZM129.89,27,127.81,22,125.74,27Z"/><path class="cls-3" d="M138.34,17.93h7.15a6.23,6.23,0,0,1,4.56,1.58,4.92,4.92,0,0,1,1.34,3.58v0A4.85,4.85,0,0,1,148,28l3.82,5.59h-4l-3.36-5h-2.7v5h-3.44Zm6.93,7.59c1.67,0,2.63-.89,2.63-2.21v0c0-1.48-1-2.24-2.7-2.24h-3.42v4.49Z"/><path class="cls-3" d="M168.27,31.59l.76-.87a7.57,7.57,0,0,0,5.6,2.33c2.35,0,4-1.32,4-3.11v0c0-1.66-.87-2.62-4.42-3.33-3.76-.76-5.28-2-5.28-4.4v-.05c0-2.32,2.12-4.11,5-4.11a7.8,7.8,0,0,1,5.36,1.9l-.74.91a6.72,6.72,0,0,0-4.67-1.76c-2.3,0-3.82,1.32-3.82,3v0c0,1.66.85,2.66,4.56,3.42s5.14,2,5.14,4.31v0c0,2.52-2.17,4.27-5.18,4.27A8.87,8.87,0,0,1,168.27,31.59Z"/><path class="cls-3" d="M183.35,18.23H189c3.44,0,5.8,1.77,5.8,4.78v0c0,3.28-2.83,5-6.1,5h-4.22v5.83h-1.16ZM188.8,27c2.91,0,4.87-1.52,4.87-3.84v-.05c0-2.48-1.92-3.77-4.73-3.77h-4.43V27Z"/><path class="cls-3" d="M202.43,18.12h1.12l7.28,15.75h-1.27l-2-4.38h-9.23l-2,4.38h-1.21Zm4.65,10.32-4.11-9-4.13,9.05Z"/><path class="cls-3" d="M212.33,26.1v-.05A7.87,7.87,0,0,1,220.15,18a8.23,8.23,0,0,1,6.08,2.51l-.83.85A7.16,7.16,0,0,0,220.13,19a6.69,6.69,0,0,0-6.59,7v0a6.74,6.74,0,0,0,6.61,7,7.18,7.18,0,0,0,5.39-2.43l.78.76a8.24,8.24,0,0,1-6.21,2.72A7.77,7.77,0,0,1,212.33,26.1Z"/><path class="cls-3" d="M229.45,18.23h1.16V33.87h-1.16Z"/><path class="cls-3" d="M234.5,26.1v-.05A7.88,7.88,0,0,1,242.39,18,7.8,7.8,0,0,1,250.23,26v0a7.87,7.87,0,1,1-15.73.05Zm14.52,0v-.05a6.77,6.77,0,0,0-6.68-7,6.7,6.7,0,0,0-6.63,7v0a6.76,6.76,0,0,0,6.68,7A6.69,6.69,0,0,0,249,26.1Z"/><path class="cls-3" d="M252.85,31.59l.76-.87a7.57,7.57,0,0,0,5.6,2.33c2.35,0,4-1.32,4-3.11v0c0-1.66-.87-2.62-4.42-3.33-3.76-.76-5.28-2-5.28-4.4v-.05c0-2.32,2.12-4.11,5-4.11a7.8,7.8,0,0,1,5.36,1.9l-.74.91a6.72,6.72,0,0,0-4.67-1.76c-2.3,0-3.82,1.32-3.82,3v0c0,1.66.85,2.66,4.56,3.42s5.14,2,5.14,4.31v0c0,2.52-2.17,4.27-5.18,4.27A8.87,8.87,0,0,1,252.85,31.59Z"/><path class="cls-3" d="M162.57,29.22A4.24,4.24,0,0,1,159.24,31a2.71,2.71,0,0,1-2.92-2.55v0c0-1.66,1.36-2.39,2.72-3A3.64,3.64,0,0,1,157.72,23v0a2.11,2.11,0,0,1,2.23-2,2.06,2.06,0,0,1,2.18,2v0c0,1-.64,1.76-2.61,2.63l3,3.28A12.22,12.22,0,0,0,163.94,26l.26.09A11.68,11.68,0,0,1,162.74,29l1.72,1.85-.22.19Zm-.18-.19-3.14-3.38c-1.32.6-2.62,1.25-2.62,2.81v0a2.41,2.41,0,0,0,2.61,2.27A4.07,4.07,0,0,0,162.39,29Zm-.55-6.14v0A1.79,1.79,0,0,0,160,21.15,1.84,1.84,0,0,0,158,22.91v0a3.49,3.49,0,0,0,1.31,2.4C161.25,24.48,161.84,23.83,161.84,22.89Z"/></g></g></svg>